%TF.GenerationSoftware,KiCad,Pcbnew,8.0.8*%
%TF.CreationDate,2025-03-03T11:51:37-05:00*%
%TF.ProjectId,PCB Andres Ortiz,50434220-416e-4647-9265-73204f727469,rev?*%
%TF.SameCoordinates,Original*%
%TF.FileFunction,Legend,Top*%
%TF.FilePolarity,Positive*%
%FSLAX46Y46*%
G04 Gerber Fmt 4.6, Leading zero omitted, Abs format (unit mm)*
G04 Created by KiCad (PCBNEW 8.0.8) date 2025-03-03 11:51:37*
%MOMM*%
%LPD*%
G01*
G04 APERTURE LIST*
%ADD10C,0.150000*%
%ADD11C,0.120000*%
G04 APERTURE END LIST*
D10*
X175136666Y-42804819D02*
X175136666Y-43519104D01*
X175136666Y-43519104D02*
X175089047Y-43661961D01*
X175089047Y-43661961D02*
X174993809Y-43757200D01*
X174993809Y-43757200D02*
X174850952Y-43804819D01*
X174850952Y-43804819D02*
X174755714Y-43804819D01*
X176041428Y-42804819D02*
X175850952Y-42804819D01*
X175850952Y-42804819D02*
X175755714Y-42852438D01*
X175755714Y-42852438D02*
X175708095Y-42900057D01*
X175708095Y-42900057D02*
X175612857Y-43042914D01*
X175612857Y-43042914D02*
X175565238Y-43233390D01*
X175565238Y-43233390D02*
X175565238Y-43614342D01*
X175565238Y-43614342D02*
X175612857Y-43709580D01*
X175612857Y-43709580D02*
X175660476Y-43757200D01*
X175660476Y-43757200D02*
X175755714Y-43804819D01*
X175755714Y-43804819D02*
X175946190Y-43804819D01*
X175946190Y-43804819D02*
X176041428Y-43757200D01*
X176041428Y-43757200D02*
X176089047Y-43709580D01*
X176089047Y-43709580D02*
X176136666Y-43614342D01*
X176136666Y-43614342D02*
X176136666Y-43376247D01*
X176136666Y-43376247D02*
X176089047Y-43281009D01*
X176089047Y-43281009D02*
X176041428Y-43233390D01*
X176041428Y-43233390D02*
X175946190Y-43185771D01*
X175946190Y-43185771D02*
X175755714Y-43185771D01*
X175755714Y-43185771D02*
X175660476Y-43233390D01*
X175660476Y-43233390D02*
X175612857Y-43281009D01*
X175612857Y-43281009D02*
X175565238Y-43376247D01*
X192616666Y-102204819D02*
X192616666Y-102919104D01*
X192616666Y-102919104D02*
X192569047Y-103061961D01*
X192569047Y-103061961D02*
X192473809Y-103157200D01*
X192473809Y-103157200D02*
X192330952Y-103204819D01*
X192330952Y-103204819D02*
X192235714Y-103204819D01*
X193569047Y-102204819D02*
X193092857Y-102204819D01*
X193092857Y-102204819D02*
X193045238Y-102681009D01*
X193045238Y-102681009D02*
X193092857Y-102633390D01*
X193092857Y-102633390D02*
X193188095Y-102585771D01*
X193188095Y-102585771D02*
X193426190Y-102585771D01*
X193426190Y-102585771D02*
X193521428Y-102633390D01*
X193521428Y-102633390D02*
X193569047Y-102681009D01*
X193569047Y-102681009D02*
X193616666Y-102776247D01*
X193616666Y-102776247D02*
X193616666Y-103014342D01*
X193616666Y-103014342D02*
X193569047Y-103109580D01*
X193569047Y-103109580D02*
X193521428Y-103157200D01*
X193521428Y-103157200D02*
X193426190Y-103204819D01*
X193426190Y-103204819D02*
X193188095Y-103204819D01*
X193188095Y-103204819D02*
X193092857Y-103157200D01*
X193092857Y-103157200D02*
X193045238Y-103109580D01*
X186754819Y-69813333D02*
X187469104Y-69813333D01*
X187469104Y-69813333D02*
X187611961Y-69860952D01*
X187611961Y-69860952D02*
X187707200Y-69956190D01*
X187707200Y-69956190D02*
X187754819Y-70099047D01*
X187754819Y-70099047D02*
X187754819Y-70194285D01*
X186850057Y-69384761D02*
X186802438Y-69337142D01*
X186802438Y-69337142D02*
X186754819Y-69241904D01*
X186754819Y-69241904D02*
X186754819Y-69003809D01*
X186754819Y-69003809D02*
X186802438Y-68908571D01*
X186802438Y-68908571D02*
X186850057Y-68860952D01*
X186850057Y-68860952D02*
X186945295Y-68813333D01*
X186945295Y-68813333D02*
X187040533Y-68813333D01*
X187040533Y-68813333D02*
X187183390Y-68860952D01*
X187183390Y-68860952D02*
X187754819Y-69432380D01*
X187754819Y-69432380D02*
X187754819Y-68813333D01*
X169109580Y-101711554D02*
X169157200Y-101759173D01*
X169157200Y-101759173D02*
X169204819Y-101902030D01*
X169204819Y-101902030D02*
X169204819Y-101997268D01*
X169204819Y-101997268D02*
X169157200Y-102140125D01*
X169157200Y-102140125D02*
X169061961Y-102235363D01*
X169061961Y-102235363D02*
X168966723Y-102282982D01*
X168966723Y-102282982D02*
X168776247Y-102330601D01*
X168776247Y-102330601D02*
X168633390Y-102330601D01*
X168633390Y-102330601D02*
X168442914Y-102282982D01*
X168442914Y-102282982D02*
X168347676Y-102235363D01*
X168347676Y-102235363D02*
X168252438Y-102140125D01*
X168252438Y-102140125D02*
X168204819Y-101997268D01*
X168204819Y-101997268D02*
X168204819Y-101902030D01*
X168204819Y-101902030D02*
X168252438Y-101759173D01*
X168252438Y-101759173D02*
X168300057Y-101711554D01*
X168538152Y-100854411D02*
X169204819Y-100854411D01*
X168157200Y-101092506D02*
X168871485Y-101330601D01*
X168871485Y-101330601D02*
X168871485Y-100711554D01*
X110754819Y-74193333D02*
X111469104Y-74193333D01*
X111469104Y-74193333D02*
X111611961Y-74240952D01*
X111611961Y-74240952D02*
X111707200Y-74336190D01*
X111707200Y-74336190D02*
X111754819Y-74479047D01*
X111754819Y-74479047D02*
X111754819Y-74574285D01*
X111088152Y-73288571D02*
X111754819Y-73288571D01*
X110707200Y-73526666D02*
X111421485Y-73764761D01*
X111421485Y-73764761D02*
X111421485Y-73145714D01*
X170609580Y-114666666D02*
X170657200Y-114714285D01*
X170657200Y-114714285D02*
X170704819Y-114857142D01*
X170704819Y-114857142D02*
X170704819Y-114952380D01*
X170704819Y-114952380D02*
X170657200Y-115095237D01*
X170657200Y-115095237D02*
X170561961Y-115190475D01*
X170561961Y-115190475D02*
X170466723Y-115238094D01*
X170466723Y-115238094D02*
X170276247Y-115285713D01*
X170276247Y-115285713D02*
X170133390Y-115285713D01*
X170133390Y-115285713D02*
X169942914Y-115238094D01*
X169942914Y-115238094D02*
X169847676Y-115190475D01*
X169847676Y-115190475D02*
X169752438Y-115095237D01*
X169752438Y-115095237D02*
X169704819Y-114952380D01*
X169704819Y-114952380D02*
X169704819Y-114857142D01*
X169704819Y-114857142D02*
X169752438Y-114714285D01*
X169752438Y-114714285D02*
X169800057Y-114666666D01*
X170704819Y-113714285D02*
X170704819Y-114285713D01*
X170704819Y-113999999D02*
X169704819Y-113999999D01*
X169704819Y-113999999D02*
X169847676Y-114095237D01*
X169847676Y-114095237D02*
X169942914Y-114190475D01*
X169942914Y-114190475D02*
X169990533Y-114285713D01*
X152878221Y-101109580D02*
X152830602Y-101157200D01*
X152830602Y-101157200D02*
X152687745Y-101204819D01*
X152687745Y-101204819D02*
X152592507Y-101204819D01*
X152592507Y-101204819D02*
X152449650Y-101157200D01*
X152449650Y-101157200D02*
X152354412Y-101061961D01*
X152354412Y-101061961D02*
X152306793Y-100966723D01*
X152306793Y-100966723D02*
X152259174Y-100776247D01*
X152259174Y-100776247D02*
X152259174Y-100633390D01*
X152259174Y-100633390D02*
X152306793Y-100442914D01*
X152306793Y-100442914D02*
X152354412Y-100347676D01*
X152354412Y-100347676D02*
X152449650Y-100252438D01*
X152449650Y-100252438D02*
X152592507Y-100204819D01*
X152592507Y-100204819D02*
X152687745Y-100204819D01*
X152687745Y-100204819D02*
X152830602Y-100252438D01*
X152830602Y-100252438D02*
X152878221Y-100300057D01*
X153259174Y-100300057D02*
X153306793Y-100252438D01*
X153306793Y-100252438D02*
X153402031Y-100204819D01*
X153402031Y-100204819D02*
X153640126Y-100204819D01*
X153640126Y-100204819D02*
X153735364Y-100252438D01*
X153735364Y-100252438D02*
X153782983Y-100300057D01*
X153782983Y-100300057D02*
X153830602Y-100395295D01*
X153830602Y-100395295D02*
X153830602Y-100490533D01*
X153830602Y-100490533D02*
X153782983Y-100633390D01*
X153782983Y-100633390D02*
X153211555Y-101204819D01*
X153211555Y-101204819D02*
X153830602Y-101204819D01*
X163116666Y-125904819D02*
X163116666Y-126619104D01*
X163116666Y-126619104D02*
X163069047Y-126761961D01*
X163069047Y-126761961D02*
X162973809Y-126857200D01*
X162973809Y-126857200D02*
X162830952Y-126904819D01*
X162830952Y-126904819D02*
X162735714Y-126904819D01*
X163497619Y-125904819D02*
X164116666Y-125904819D01*
X164116666Y-125904819D02*
X163783333Y-126285771D01*
X163783333Y-126285771D02*
X163926190Y-126285771D01*
X163926190Y-126285771D02*
X164021428Y-126333390D01*
X164021428Y-126333390D02*
X164069047Y-126381009D01*
X164069047Y-126381009D02*
X164116666Y-126476247D01*
X164116666Y-126476247D02*
X164116666Y-126714342D01*
X164116666Y-126714342D02*
X164069047Y-126809580D01*
X164069047Y-126809580D02*
X164021428Y-126857200D01*
X164021428Y-126857200D02*
X163926190Y-126904819D01*
X163926190Y-126904819D02*
X163640476Y-126904819D01*
X163640476Y-126904819D02*
X163545238Y-126857200D01*
X163545238Y-126857200D02*
X163497619Y-126809580D01*
X190609580Y-95711554D02*
X190657200Y-95759173D01*
X190657200Y-95759173D02*
X190704819Y-95902030D01*
X190704819Y-95902030D02*
X190704819Y-95997268D01*
X190704819Y-95997268D02*
X190657200Y-96140125D01*
X190657200Y-96140125D02*
X190561961Y-96235363D01*
X190561961Y-96235363D02*
X190466723Y-96282982D01*
X190466723Y-96282982D02*
X190276247Y-96330601D01*
X190276247Y-96330601D02*
X190133390Y-96330601D01*
X190133390Y-96330601D02*
X189942914Y-96282982D01*
X189942914Y-96282982D02*
X189847676Y-96235363D01*
X189847676Y-96235363D02*
X189752438Y-96140125D01*
X189752438Y-96140125D02*
X189704819Y-95997268D01*
X189704819Y-95997268D02*
X189704819Y-95902030D01*
X189704819Y-95902030D02*
X189752438Y-95759173D01*
X189752438Y-95759173D02*
X189800057Y-95711554D01*
X189704819Y-95378220D02*
X189704819Y-94759173D01*
X189704819Y-94759173D02*
X190085771Y-95092506D01*
X190085771Y-95092506D02*
X190085771Y-94949649D01*
X190085771Y-94949649D02*
X190133390Y-94854411D01*
X190133390Y-94854411D02*
X190181009Y-94806792D01*
X190181009Y-94806792D02*
X190276247Y-94759173D01*
X190276247Y-94759173D02*
X190514342Y-94759173D01*
X190514342Y-94759173D02*
X190609580Y-94806792D01*
X190609580Y-94806792D02*
X190657200Y-94854411D01*
X190657200Y-94854411D02*
X190704819Y-94949649D01*
X190704819Y-94949649D02*
X190704819Y-95235363D01*
X190704819Y-95235363D02*
X190657200Y-95330601D01*
X190657200Y-95330601D02*
X190609580Y-95378220D01*
X138249819Y-115251904D02*
X139059342Y-115251904D01*
X139059342Y-115251904D02*
X139154580Y-115204285D01*
X139154580Y-115204285D02*
X139202200Y-115156666D01*
X139202200Y-115156666D02*
X139249819Y-115061428D01*
X139249819Y-115061428D02*
X139249819Y-114870952D01*
X139249819Y-114870952D02*
X139202200Y-114775714D01*
X139202200Y-114775714D02*
X139154580Y-114728095D01*
X139154580Y-114728095D02*
X139059342Y-114680476D01*
X139059342Y-114680476D02*
X138249819Y-114680476D01*
X138345057Y-114251904D02*
X138297438Y-114204285D01*
X138297438Y-114204285D02*
X138249819Y-114109047D01*
X138249819Y-114109047D02*
X138249819Y-113870952D01*
X138249819Y-113870952D02*
X138297438Y-113775714D01*
X138297438Y-113775714D02*
X138345057Y-113728095D01*
X138345057Y-113728095D02*
X138440295Y-113680476D01*
X138440295Y-113680476D02*
X138535533Y-113680476D01*
X138535533Y-113680476D02*
X138678390Y-113728095D01*
X138678390Y-113728095D02*
X139249819Y-114299523D01*
X139249819Y-114299523D02*
X139249819Y-113680476D01*
X173238095Y-98279819D02*
X173238095Y-99089342D01*
X173238095Y-99089342D02*
X173285714Y-99184580D01*
X173285714Y-99184580D02*
X173333333Y-99232200D01*
X173333333Y-99232200D02*
X173428571Y-99279819D01*
X173428571Y-99279819D02*
X173619047Y-99279819D01*
X173619047Y-99279819D02*
X173714285Y-99232200D01*
X173714285Y-99232200D02*
X173761904Y-99184580D01*
X173761904Y-99184580D02*
X173809523Y-99089342D01*
X173809523Y-99089342D02*
X173809523Y-98279819D01*
X174190476Y-98279819D02*
X174809523Y-98279819D01*
X174809523Y-98279819D02*
X174476190Y-98660771D01*
X174476190Y-98660771D02*
X174619047Y-98660771D01*
X174619047Y-98660771D02*
X174714285Y-98708390D01*
X174714285Y-98708390D02*
X174761904Y-98756009D01*
X174761904Y-98756009D02*
X174809523Y-98851247D01*
X174809523Y-98851247D02*
X174809523Y-99089342D01*
X174809523Y-99089342D02*
X174761904Y-99184580D01*
X174761904Y-99184580D02*
X174714285Y-99232200D01*
X174714285Y-99232200D02*
X174619047Y-99279819D01*
X174619047Y-99279819D02*
X174333333Y-99279819D01*
X174333333Y-99279819D02*
X174238095Y-99232200D01*
X174238095Y-99232200D02*
X174190476Y-99184580D01*
D11*
%TO.C,J6*%
X167880000Y-44190000D02*
X183120000Y-44190000D01*
X167880000Y-50540000D02*
X183120000Y-50540000D01*
X167880000Y-51810000D02*
X167880000Y-44190000D01*
X167880000Y-51810000D02*
X183120000Y-51810000D01*
X183120000Y-51810000D02*
X183120000Y-44190000D01*
%TO.C,J5*%
X183400000Y-112250000D02*
X183400000Y-113300000D01*
X183600000Y-103900000D02*
X185500000Y-103900000D01*
X183600000Y-106600000D02*
X183600000Y-103900000D01*
X183600000Y-113100000D02*
X183600000Y-110500000D01*
X184450000Y-113300000D02*
X183400000Y-113300000D01*
X189500000Y-103900000D02*
X198300000Y-103900000D01*
X198300000Y-103900000D02*
X198300000Y-113100000D01*
X198300000Y-113100000D02*
X183600000Y-113100000D01*
%TO.C,J2*%
X188110000Y-90300000D02*
X195890000Y-90300000D01*
X195890000Y-49460000D01*
X188110000Y-49460000D01*
X188110000Y-90300000D01*
%TO.C,C4*%
X163960000Y-101544888D02*
X162420000Y-101544888D01*
X163960000Y-101584888D02*
X162420000Y-101584888D01*
X163960000Y-101624888D02*
X162421000Y-101624888D01*
X163960000Y-101664888D02*
X162422000Y-101664888D01*
X163960000Y-101704888D02*
X162424000Y-101704888D01*
X163960000Y-101744888D02*
X162427000Y-101744888D01*
X163960000Y-101784888D02*
X162431000Y-101784888D01*
X163960000Y-101824888D02*
X162435000Y-101824888D01*
X163960000Y-101864888D02*
X162439000Y-101864888D01*
X163960000Y-101904888D02*
X162444000Y-101904888D01*
X163960000Y-101944888D02*
X162450000Y-101944888D01*
X163960000Y-101984888D02*
X162457000Y-101984888D01*
X163960000Y-102024888D02*
X162464000Y-102024888D01*
X163960000Y-102064888D02*
X162472000Y-102064888D01*
X163960000Y-102104888D02*
X162480000Y-102104888D01*
X163960000Y-102144888D02*
X162489000Y-102144888D01*
X163960000Y-102184888D02*
X162499000Y-102184888D01*
X163960000Y-102224888D02*
X162509000Y-102224888D01*
X163960000Y-102265888D02*
X162520000Y-102265888D01*
X163960000Y-102305888D02*
X162532000Y-102305888D01*
X163960000Y-102345888D02*
X162545000Y-102345888D01*
X163960000Y-102385888D02*
X162558000Y-102385888D01*
X163960000Y-102425888D02*
X162572000Y-102425888D01*
X163960000Y-102465888D02*
X162586000Y-102465888D01*
X163960000Y-102505888D02*
X162602000Y-102505888D01*
X163960000Y-102545888D02*
X162618000Y-102545888D01*
X163960000Y-102585888D02*
X162635000Y-102585888D01*
X163960000Y-102625888D02*
X162652000Y-102625888D01*
X163960000Y-102665888D02*
X162671000Y-102665888D01*
X163960000Y-102705888D02*
X162690000Y-102705888D01*
X163960000Y-102745888D02*
X162710000Y-102745888D01*
X163960000Y-102785888D02*
X162732000Y-102785888D01*
X163960000Y-102825888D02*
X162753000Y-102825888D01*
X163960000Y-102865888D02*
X162776000Y-102865888D01*
X163960000Y-102905888D02*
X162800000Y-102905888D01*
X163960000Y-102945888D02*
X162825000Y-102945888D01*
X163960000Y-102985888D02*
X162851000Y-102985888D01*
X163960000Y-103025888D02*
X162878000Y-103025888D01*
X163960000Y-103065888D02*
X162905000Y-103065888D01*
X163960000Y-103105888D02*
X162935000Y-103105888D01*
X163960000Y-103145888D02*
X162965000Y-103145888D01*
X163960000Y-103185888D02*
X162996000Y-103185888D01*
X163960000Y-103225888D02*
X163029000Y-103225888D01*
X163960000Y-103265888D02*
X163063000Y-103265888D01*
X163960000Y-103305888D02*
X163099000Y-103305888D01*
X163960000Y-103345888D02*
X163136000Y-103345888D01*
X163960000Y-103385888D02*
X163174000Y-103385888D01*
X163960000Y-103425888D02*
X163215000Y-103425888D01*
X163960000Y-103465888D02*
X163257000Y-103465888D01*
X163960000Y-103505888D02*
X163301000Y-103505888D01*
X163960000Y-103545888D02*
X163347000Y-103545888D01*
X165284000Y-104145888D02*
X164716000Y-104145888D01*
X165518000Y-104105888D02*
X164482000Y-104105888D01*
X165677000Y-104065888D02*
X164323000Y-104065888D01*
X165805000Y-104025888D02*
X164195000Y-104025888D01*
X165915000Y-103985888D02*
X164085000Y-103985888D01*
X166011000Y-103945888D02*
X163989000Y-103945888D01*
X166098000Y-103905888D02*
X163902000Y-103905888D01*
X166178000Y-103865888D02*
X163822000Y-103865888D01*
X166251000Y-103825888D02*
X163749000Y-103825888D01*
X166319000Y-103785888D02*
X163681000Y-103785888D01*
X166383000Y-103745888D02*
X163617000Y-103745888D01*
X166443000Y-103705888D02*
X163557000Y-103705888D01*
X166475000Y-98740113D02*
X166475000Y-99240113D01*
X166500000Y-103665888D02*
X163500000Y-103665888D01*
X166554000Y-103625888D02*
X163446000Y-103625888D01*
X166605000Y-103585888D02*
X163395000Y-103585888D01*
X166653000Y-103545888D02*
X166040000Y-103545888D01*
X166699000Y-103505888D02*
X166040000Y-103505888D01*
X166725000Y-98990113D02*
X166225000Y-98990113D01*
X166743000Y-103465888D02*
X166040000Y-103465888D01*
X166785000Y-103425888D02*
X166040000Y-103425888D01*
X166826000Y-103385888D02*
X166040000Y-103385888D01*
X166864000Y-103345888D02*
X166040000Y-103345888D01*
X166901000Y-103305888D02*
X166040000Y-103305888D01*
X166937000Y-103265888D02*
X166040000Y-103265888D01*
X166971000Y-103225888D02*
X166040000Y-103225888D01*
X167004000Y-103185888D02*
X166040000Y-103185888D01*
X167035000Y-103145888D02*
X166040000Y-103145888D01*
X167065000Y-103105888D02*
X166040000Y-103105888D01*
X167095000Y-103065888D02*
X166040000Y-103065888D01*
X167122000Y-103025888D02*
X166040000Y-103025888D01*
X167149000Y-102985888D02*
X166040000Y-102985888D01*
X167175000Y-102945888D02*
X166040000Y-102945888D01*
X167200000Y-102905888D02*
X166040000Y-102905888D01*
X167224000Y-102865888D02*
X166040000Y-102865888D01*
X167247000Y-102825888D02*
X166040000Y-102825888D01*
X167268000Y-102785888D02*
X166040000Y-102785888D01*
X167290000Y-102745888D02*
X166040000Y-102745888D01*
X167310000Y-102705888D02*
X166040000Y-102705888D01*
X167329000Y-102665888D02*
X166040000Y-102665888D01*
X167348000Y-102625888D02*
X166040000Y-102625888D01*
X167365000Y-102585888D02*
X166040000Y-102585888D01*
X167382000Y-102545888D02*
X166040000Y-102545888D01*
X167398000Y-102505888D02*
X166040000Y-102505888D01*
X167414000Y-102465888D02*
X166040000Y-102465888D01*
X167428000Y-102425888D02*
X166040000Y-102425888D01*
X167442000Y-102385888D02*
X166040000Y-102385888D01*
X167455000Y-102345888D02*
X166040000Y-102345888D01*
X167468000Y-102305888D02*
X166040000Y-102305888D01*
X167480000Y-102265888D02*
X166040000Y-102265888D01*
X167491000Y-102224888D02*
X166040000Y-102224888D01*
X167501000Y-102184888D02*
X166040000Y-102184888D01*
X167511000Y-102144888D02*
X166040000Y-102144888D01*
X167520000Y-102104888D02*
X166040000Y-102104888D01*
X167528000Y-102064888D02*
X166040000Y-102064888D01*
X167536000Y-102024888D02*
X166040000Y-102024888D01*
X167543000Y-101984888D02*
X166040000Y-101984888D01*
X167550000Y-101944888D02*
X166040000Y-101944888D01*
X167556000Y-101904888D02*
X166040000Y-101904888D01*
X167561000Y-101864888D02*
X166040000Y-101864888D01*
X167565000Y-101824888D02*
X166040000Y-101824888D01*
X167569000Y-101784888D02*
X166040000Y-101784888D01*
X167573000Y-101744888D02*
X166040000Y-101744888D01*
X167576000Y-101704888D02*
X166040000Y-101704888D01*
X167578000Y-101664888D02*
X166040000Y-101664888D01*
X167579000Y-101624888D02*
X166040000Y-101624888D01*
X167580000Y-101544888D02*
X166040000Y-101544888D01*
X167580000Y-101584888D02*
X166040000Y-101584888D01*
X167620000Y-101544888D02*
G75*
G02*
X162380000Y-101544888I-2620000J0D01*
G01*
X162380000Y-101544888D02*
G75*
G02*
X167620000Y-101544888I2620000J0D01*
G01*
%TO.C,J4*%
X102690000Y-63720000D02*
X102690000Y-84040000D01*
X102690000Y-84040000D02*
X110310000Y-84040000D01*
X103960000Y-84040000D02*
X103960000Y-63720000D01*
X110310000Y-63720000D02*
X102690000Y-63720000D01*
X110310000Y-63720000D02*
X110310000Y-84040000D01*
%TO.C,C1*%
X171420000Y-114460000D02*
X172960000Y-114460000D01*
X171420000Y-114500000D02*
X172960000Y-114500000D01*
X171421000Y-114420000D02*
X172960000Y-114420000D01*
X171422000Y-114380000D02*
X172960000Y-114380000D01*
X171424000Y-114340000D02*
X172960000Y-114340000D01*
X171427000Y-114300000D02*
X172960000Y-114300000D01*
X171431000Y-114260000D02*
X172960000Y-114260000D01*
X171435000Y-114220000D02*
X172960000Y-114220000D01*
X171439000Y-114180000D02*
X172960000Y-114180000D01*
X171444000Y-114140000D02*
X172960000Y-114140000D01*
X171450000Y-114100000D02*
X172960000Y-114100000D01*
X171457000Y-114060000D02*
X172960000Y-114060000D01*
X171464000Y-114020000D02*
X172960000Y-114020000D01*
X171472000Y-113980000D02*
X172960000Y-113980000D01*
X171480000Y-113940000D02*
X172960000Y-113940000D01*
X171489000Y-113900000D02*
X172960000Y-113900000D01*
X171499000Y-113860000D02*
X172960000Y-113860000D01*
X171509000Y-113820000D02*
X172960000Y-113820000D01*
X171520000Y-113779000D02*
X172960000Y-113779000D01*
X171532000Y-113739000D02*
X172960000Y-113739000D01*
X171545000Y-113699000D02*
X172960000Y-113699000D01*
X171558000Y-113659000D02*
X172960000Y-113659000D01*
X171572000Y-113619000D02*
X172960000Y-113619000D01*
X171586000Y-113579000D02*
X172960000Y-113579000D01*
X171602000Y-113539000D02*
X172960000Y-113539000D01*
X171618000Y-113499000D02*
X172960000Y-113499000D01*
X171635000Y-113459000D02*
X172960000Y-113459000D01*
X171652000Y-113419000D02*
X172960000Y-113419000D01*
X171671000Y-113379000D02*
X172960000Y-113379000D01*
X171690000Y-113339000D02*
X172960000Y-113339000D01*
X171710000Y-113299000D02*
X172960000Y-113299000D01*
X171732000Y-113259000D02*
X172960000Y-113259000D01*
X171753000Y-113219000D02*
X172960000Y-113219000D01*
X171776000Y-113179000D02*
X172960000Y-113179000D01*
X171800000Y-113139000D02*
X172960000Y-113139000D01*
X171825000Y-113099000D02*
X172960000Y-113099000D01*
X171851000Y-113059000D02*
X172960000Y-113059000D01*
X171878000Y-113019000D02*
X172960000Y-113019000D01*
X171905000Y-112979000D02*
X172960000Y-112979000D01*
X171935000Y-112939000D02*
X172960000Y-112939000D01*
X171965000Y-112899000D02*
X172960000Y-112899000D01*
X171996000Y-112859000D02*
X172960000Y-112859000D01*
X172029000Y-112819000D02*
X172960000Y-112819000D01*
X172063000Y-112779000D02*
X172960000Y-112779000D01*
X172099000Y-112739000D02*
X172960000Y-112739000D01*
X172136000Y-112699000D02*
X172960000Y-112699000D01*
X172174000Y-112659000D02*
X172960000Y-112659000D01*
X172215000Y-112619000D02*
X172960000Y-112619000D01*
X172257000Y-112579000D02*
X172960000Y-112579000D01*
X172275000Y-117054775D02*
X172775000Y-117054775D01*
X172301000Y-112539000D02*
X172960000Y-112539000D01*
X172347000Y-112499000D02*
X172960000Y-112499000D01*
X172395000Y-112459000D02*
X175605000Y-112459000D01*
X172446000Y-112419000D02*
X175554000Y-112419000D01*
X172500000Y-112379000D02*
X175500000Y-112379000D01*
X172525000Y-117304775D02*
X172525000Y-116804775D01*
X172557000Y-112339000D02*
X175443000Y-112339000D01*
X172617000Y-112299000D02*
X175383000Y-112299000D01*
X172681000Y-112259000D02*
X175319000Y-112259000D01*
X172749000Y-112219000D02*
X175251000Y-112219000D01*
X172822000Y-112179000D02*
X175178000Y-112179000D01*
X172902000Y-112139000D02*
X175098000Y-112139000D01*
X172989000Y-112099000D02*
X175011000Y-112099000D01*
X173085000Y-112059000D02*
X174915000Y-112059000D01*
X173195000Y-112019000D02*
X174805000Y-112019000D01*
X173323000Y-111979000D02*
X174677000Y-111979000D01*
X173482000Y-111939000D02*
X174518000Y-111939000D01*
X173716000Y-111899000D02*
X174284000Y-111899000D01*
X175040000Y-112499000D02*
X175653000Y-112499000D01*
X175040000Y-112539000D02*
X175699000Y-112539000D01*
X175040000Y-112579000D02*
X175743000Y-112579000D01*
X175040000Y-112619000D02*
X175785000Y-112619000D01*
X175040000Y-112659000D02*
X175826000Y-112659000D01*
X175040000Y-112699000D02*
X175864000Y-112699000D01*
X175040000Y-112739000D02*
X175901000Y-112739000D01*
X175040000Y-112779000D02*
X175937000Y-112779000D01*
X175040000Y-112819000D02*
X175971000Y-112819000D01*
X175040000Y-112859000D02*
X176004000Y-112859000D01*
X175040000Y-112899000D02*
X176035000Y-112899000D01*
X175040000Y-112939000D02*
X176065000Y-112939000D01*
X175040000Y-112979000D02*
X176095000Y-112979000D01*
X175040000Y-113019000D02*
X176122000Y-113019000D01*
X175040000Y-113059000D02*
X176149000Y-113059000D01*
X175040000Y-113099000D02*
X176175000Y-113099000D01*
X175040000Y-113139000D02*
X176200000Y-113139000D01*
X175040000Y-113179000D02*
X176224000Y-113179000D01*
X175040000Y-113219000D02*
X176247000Y-113219000D01*
X175040000Y-113259000D02*
X176268000Y-113259000D01*
X175040000Y-113299000D02*
X176290000Y-113299000D01*
X175040000Y-113339000D02*
X176310000Y-113339000D01*
X175040000Y-113379000D02*
X176329000Y-113379000D01*
X175040000Y-113419000D02*
X176348000Y-113419000D01*
X175040000Y-113459000D02*
X176365000Y-113459000D01*
X175040000Y-113499000D02*
X176382000Y-113499000D01*
X175040000Y-113539000D02*
X176398000Y-113539000D01*
X175040000Y-113579000D02*
X176414000Y-113579000D01*
X175040000Y-113619000D02*
X176428000Y-113619000D01*
X175040000Y-113659000D02*
X176442000Y-113659000D01*
X175040000Y-113699000D02*
X176455000Y-113699000D01*
X175040000Y-113739000D02*
X176468000Y-113739000D01*
X175040000Y-113779000D02*
X176480000Y-113779000D01*
X175040000Y-113820000D02*
X176491000Y-113820000D01*
X175040000Y-113860000D02*
X176501000Y-113860000D01*
X175040000Y-113900000D02*
X176511000Y-113900000D01*
X175040000Y-113940000D02*
X176520000Y-113940000D01*
X175040000Y-113980000D02*
X176528000Y-113980000D01*
X175040000Y-114020000D02*
X176536000Y-114020000D01*
X175040000Y-114060000D02*
X176543000Y-114060000D01*
X175040000Y-114100000D02*
X176550000Y-114100000D01*
X175040000Y-114140000D02*
X176556000Y-114140000D01*
X175040000Y-114180000D02*
X176561000Y-114180000D01*
X175040000Y-114220000D02*
X176565000Y-114220000D01*
X175040000Y-114260000D02*
X176569000Y-114260000D01*
X175040000Y-114300000D02*
X176573000Y-114300000D01*
X175040000Y-114340000D02*
X176576000Y-114340000D01*
X175040000Y-114380000D02*
X176578000Y-114380000D01*
X175040000Y-114420000D02*
X176579000Y-114420000D01*
X175040000Y-114460000D02*
X176580000Y-114460000D01*
X175040000Y-114500000D02*
X176580000Y-114500000D01*
X176620000Y-114500000D02*
G75*
G02*
X171380000Y-114500000I-2620000J0D01*
G01*
X171380000Y-114500000D02*
G75*
G02*
X176620000Y-114500000I2620000J0D01*
G01*
%TO.C,C2*%
X150240113Y-103025000D02*
X150740113Y-103025000D01*
X150490113Y-102775000D02*
X150490113Y-103275000D01*
X153044888Y-101920000D02*
X153044888Y-103460000D01*
X153044888Y-105540000D02*
X153044888Y-107080000D01*
X153084888Y-101920000D02*
X153084888Y-103460000D01*
X153084888Y-105540000D02*
X153084888Y-107080000D01*
X153124888Y-101921000D02*
X153124888Y-103460000D01*
X153124888Y-105540000D02*
X153124888Y-107079000D01*
X153164888Y-101922000D02*
X153164888Y-103460000D01*
X153164888Y-105540000D02*
X153164888Y-107078000D01*
X153204888Y-101924000D02*
X153204888Y-103460000D01*
X153204888Y-105540000D02*
X153204888Y-107076000D01*
X153244888Y-101927000D02*
X153244888Y-103460000D01*
X153244888Y-105540000D02*
X153244888Y-107073000D01*
X153284888Y-101931000D02*
X153284888Y-103460000D01*
X153284888Y-105540000D02*
X153284888Y-107069000D01*
X153324888Y-101935000D02*
X153324888Y-103460000D01*
X153324888Y-105540000D02*
X153324888Y-107065000D01*
X153364888Y-101939000D02*
X153364888Y-103460000D01*
X153364888Y-105540000D02*
X153364888Y-107061000D01*
X153404888Y-101944000D02*
X153404888Y-103460000D01*
X153404888Y-105540000D02*
X153404888Y-107056000D01*
X153444888Y-101950000D02*
X153444888Y-103460000D01*
X153444888Y-105540000D02*
X153444888Y-107050000D01*
X153484888Y-101957000D02*
X153484888Y-103460000D01*
X153484888Y-105540000D02*
X153484888Y-107043000D01*
X153524888Y-101964000D02*
X153524888Y-103460000D01*
X153524888Y-105540000D02*
X153524888Y-107036000D01*
X153564888Y-101972000D02*
X153564888Y-103460000D01*
X153564888Y-105540000D02*
X153564888Y-107028000D01*
X153604888Y-101980000D02*
X153604888Y-103460000D01*
X153604888Y-105540000D02*
X153604888Y-107020000D01*
X153644888Y-101989000D02*
X153644888Y-103460000D01*
X153644888Y-105540000D02*
X153644888Y-107011000D01*
X153684888Y-101999000D02*
X153684888Y-103460000D01*
X153684888Y-105540000D02*
X153684888Y-107001000D01*
X153724888Y-102009000D02*
X153724888Y-103460000D01*
X153724888Y-105540000D02*
X153724888Y-106991000D01*
X153765888Y-102020000D02*
X153765888Y-103460000D01*
X153765888Y-105540000D02*
X153765888Y-106980000D01*
X153805888Y-102032000D02*
X153805888Y-103460000D01*
X153805888Y-105540000D02*
X153805888Y-106968000D01*
X153845888Y-102045000D02*
X153845888Y-103460000D01*
X153845888Y-105540000D02*
X153845888Y-106955000D01*
X153885888Y-102058000D02*
X153885888Y-103460000D01*
X153885888Y-105540000D02*
X153885888Y-106942000D01*
X153925888Y-102072000D02*
X153925888Y-103460000D01*
X153925888Y-105540000D02*
X153925888Y-106928000D01*
X153965888Y-102086000D02*
X153965888Y-103460000D01*
X153965888Y-105540000D02*
X153965888Y-106914000D01*
X154005888Y-102102000D02*
X154005888Y-103460000D01*
X154005888Y-105540000D02*
X154005888Y-106898000D01*
X154045888Y-102118000D02*
X154045888Y-103460000D01*
X154045888Y-105540000D02*
X154045888Y-106882000D01*
X154085888Y-102135000D02*
X154085888Y-103460000D01*
X154085888Y-105540000D02*
X154085888Y-106865000D01*
X154125888Y-102152000D02*
X154125888Y-103460000D01*
X154125888Y-105540000D02*
X154125888Y-106848000D01*
X154165888Y-102171000D02*
X154165888Y-103460000D01*
X154165888Y-105540000D02*
X154165888Y-106829000D01*
X154205888Y-102190000D02*
X154205888Y-103460000D01*
X154205888Y-105540000D02*
X154205888Y-106810000D01*
X154245888Y-102210000D02*
X154245888Y-103460000D01*
X154245888Y-105540000D02*
X154245888Y-106790000D01*
X154285888Y-102232000D02*
X154285888Y-103460000D01*
X154285888Y-105540000D02*
X154285888Y-106768000D01*
X154325888Y-102253000D02*
X154325888Y-103460000D01*
X154325888Y-105540000D02*
X154325888Y-106747000D01*
X154365888Y-102276000D02*
X154365888Y-103460000D01*
X154365888Y-105540000D02*
X154365888Y-106724000D01*
X154405888Y-102300000D02*
X154405888Y-103460000D01*
X154405888Y-105540000D02*
X154405888Y-106700000D01*
X154445888Y-102325000D02*
X154445888Y-103460000D01*
X154445888Y-105540000D02*
X154445888Y-106675000D01*
X154485888Y-102351000D02*
X154485888Y-103460000D01*
X154485888Y-105540000D02*
X154485888Y-106649000D01*
X154525888Y-102378000D02*
X154525888Y-103460000D01*
X154525888Y-105540000D02*
X154525888Y-106622000D01*
X154565888Y-102405000D02*
X154565888Y-103460000D01*
X154565888Y-105540000D02*
X154565888Y-106595000D01*
X154605888Y-102435000D02*
X154605888Y-103460000D01*
X154605888Y-105540000D02*
X154605888Y-106565000D01*
X154645888Y-102465000D02*
X154645888Y-103460000D01*
X154645888Y-105540000D02*
X154645888Y-106535000D01*
X154685888Y-102496000D02*
X154685888Y-103460000D01*
X154685888Y-105540000D02*
X154685888Y-106504000D01*
X154725888Y-102529000D02*
X154725888Y-103460000D01*
X154725888Y-105540000D02*
X154725888Y-106471000D01*
X154765888Y-102563000D02*
X154765888Y-103460000D01*
X154765888Y-105540000D02*
X154765888Y-106437000D01*
X154805888Y-102599000D02*
X154805888Y-103460000D01*
X154805888Y-105540000D02*
X154805888Y-106401000D01*
X154845888Y-102636000D02*
X154845888Y-103460000D01*
X154845888Y-105540000D02*
X154845888Y-106364000D01*
X154885888Y-102674000D02*
X154885888Y-103460000D01*
X154885888Y-105540000D02*
X154885888Y-106326000D01*
X154925888Y-102715000D02*
X154925888Y-103460000D01*
X154925888Y-105540000D02*
X154925888Y-106285000D01*
X154965888Y-102757000D02*
X154965888Y-103460000D01*
X154965888Y-105540000D02*
X154965888Y-106243000D01*
X155005888Y-102801000D02*
X155005888Y-103460000D01*
X155005888Y-105540000D02*
X155005888Y-106199000D01*
X155045888Y-102847000D02*
X155045888Y-103460000D01*
X155045888Y-105540000D02*
X155045888Y-106153000D01*
X155085888Y-102895000D02*
X155085888Y-106105000D01*
X155125888Y-102946000D02*
X155125888Y-106054000D01*
X155165888Y-103000000D02*
X155165888Y-106000000D01*
X155205888Y-103057000D02*
X155205888Y-105943000D01*
X155245888Y-103117000D02*
X155245888Y-105883000D01*
X155285888Y-103181000D02*
X155285888Y-105819000D01*
X155325888Y-103249000D02*
X155325888Y-105751000D01*
X155365888Y-103322000D02*
X155365888Y-105678000D01*
X155405888Y-103402000D02*
X155405888Y-105598000D01*
X155445888Y-103489000D02*
X155445888Y-105511000D01*
X155485888Y-103585000D02*
X155485888Y-105415000D01*
X155525888Y-103695000D02*
X155525888Y-105305000D01*
X155565888Y-103823000D02*
X155565888Y-105177000D01*
X155605888Y-103982000D02*
X155605888Y-105018000D01*
X155645888Y-104216000D02*
X155645888Y-104784000D01*
X155664888Y-104500000D02*
G75*
G02*
X150424888Y-104500000I-2620000J0D01*
G01*
X150424888Y-104500000D02*
G75*
G02*
X155664888Y-104500000I2620000J0D01*
G01*
%TO.C,U1*%
X134800000Y-57325000D02*
X160200000Y-57325000D01*
X134800000Y-96245000D02*
X134800000Y-57325000D01*
X160200000Y-57325000D02*
X160200000Y-96245000D01*
X160200000Y-96245000D02*
X134800000Y-96245000D01*
%TO.C,J3*%
X148260000Y-127190000D02*
X148260000Y-134810000D01*
X148260000Y-127190000D02*
X178740000Y-127190000D01*
X148260000Y-133540000D02*
X178740000Y-133540000D01*
X148260000Y-134810000D02*
X178740000Y-134810000D01*
X178740000Y-134810000D02*
X178740000Y-127190000D01*
%TO.C,C3*%
X185460000Y-95544888D02*
X183920000Y-95544888D01*
X185460000Y-95584888D02*
X183920000Y-95584888D01*
X185460000Y-95624888D02*
X183921000Y-95624888D01*
X185460000Y-95664888D02*
X183922000Y-95664888D01*
X185460000Y-95704888D02*
X183924000Y-95704888D01*
X185460000Y-95744888D02*
X183927000Y-95744888D01*
X185460000Y-95784888D02*
X183931000Y-95784888D01*
X185460000Y-95824888D02*
X183935000Y-95824888D01*
X185460000Y-95864888D02*
X183939000Y-95864888D01*
X185460000Y-95904888D02*
X183944000Y-95904888D01*
X185460000Y-95944888D02*
X183950000Y-95944888D01*
X185460000Y-95984888D02*
X183957000Y-95984888D01*
X185460000Y-96024888D02*
X183964000Y-96024888D01*
X185460000Y-96064888D02*
X183972000Y-96064888D01*
X185460000Y-96104888D02*
X183980000Y-96104888D01*
X185460000Y-96144888D02*
X183989000Y-96144888D01*
X185460000Y-96184888D02*
X183999000Y-96184888D01*
X185460000Y-96224888D02*
X184009000Y-96224888D01*
X185460000Y-96265888D02*
X184020000Y-96265888D01*
X185460000Y-96305888D02*
X184032000Y-96305888D01*
X185460000Y-96345888D02*
X184045000Y-96345888D01*
X185460000Y-96385888D02*
X184058000Y-96385888D01*
X185460000Y-96425888D02*
X184072000Y-96425888D01*
X185460000Y-96465888D02*
X184086000Y-96465888D01*
X185460000Y-96505888D02*
X184102000Y-96505888D01*
X185460000Y-96545888D02*
X184118000Y-96545888D01*
X185460000Y-96585888D02*
X184135000Y-96585888D01*
X185460000Y-96625888D02*
X184152000Y-96625888D01*
X185460000Y-96665888D02*
X184171000Y-96665888D01*
X185460000Y-96705888D02*
X184190000Y-96705888D01*
X185460000Y-96745888D02*
X184210000Y-96745888D01*
X185460000Y-96785888D02*
X184232000Y-96785888D01*
X185460000Y-96825888D02*
X184253000Y-96825888D01*
X185460000Y-96865888D02*
X184276000Y-96865888D01*
X185460000Y-96905888D02*
X184300000Y-96905888D01*
X185460000Y-96945888D02*
X184325000Y-96945888D01*
X185460000Y-96985888D02*
X184351000Y-96985888D01*
X185460000Y-97025888D02*
X184378000Y-97025888D01*
X185460000Y-97065888D02*
X184405000Y-97065888D01*
X185460000Y-97105888D02*
X184435000Y-97105888D01*
X185460000Y-97145888D02*
X184465000Y-97145888D01*
X185460000Y-97185888D02*
X184496000Y-97185888D01*
X185460000Y-97225888D02*
X184529000Y-97225888D01*
X185460000Y-97265888D02*
X184563000Y-97265888D01*
X185460000Y-97305888D02*
X184599000Y-97305888D01*
X185460000Y-97345888D02*
X184636000Y-97345888D01*
X185460000Y-97385888D02*
X184674000Y-97385888D01*
X185460000Y-97425888D02*
X184715000Y-97425888D01*
X185460000Y-97465888D02*
X184757000Y-97465888D01*
X185460000Y-97505888D02*
X184801000Y-97505888D01*
X185460000Y-97545888D02*
X184847000Y-97545888D01*
X186784000Y-98145888D02*
X186216000Y-98145888D01*
X187018000Y-98105888D02*
X185982000Y-98105888D01*
X187177000Y-98065888D02*
X185823000Y-98065888D01*
X187305000Y-98025888D02*
X185695000Y-98025888D01*
X187415000Y-97985888D02*
X185585000Y-97985888D01*
X187511000Y-97945888D02*
X185489000Y-97945888D01*
X187598000Y-97905888D02*
X185402000Y-97905888D01*
X187678000Y-97865888D02*
X185322000Y-97865888D01*
X187751000Y-97825888D02*
X185249000Y-97825888D01*
X187819000Y-97785888D02*
X185181000Y-97785888D01*
X187883000Y-97745888D02*
X185117000Y-97745888D01*
X187943000Y-97705888D02*
X185057000Y-97705888D01*
X187975000Y-92740113D02*
X187975000Y-93240113D01*
X188000000Y-97665888D02*
X185000000Y-97665888D01*
X188054000Y-97625888D02*
X184946000Y-97625888D01*
X188105000Y-97585888D02*
X184895000Y-97585888D01*
X188153000Y-97545888D02*
X187540000Y-97545888D01*
X188199000Y-97505888D02*
X187540000Y-97505888D01*
X188225000Y-92990113D02*
X187725000Y-92990113D01*
X188243000Y-97465888D02*
X187540000Y-97465888D01*
X188285000Y-97425888D02*
X187540000Y-97425888D01*
X188326000Y-97385888D02*
X187540000Y-97385888D01*
X188364000Y-97345888D02*
X187540000Y-97345888D01*
X188401000Y-97305888D02*
X187540000Y-97305888D01*
X188437000Y-97265888D02*
X187540000Y-97265888D01*
X188471000Y-97225888D02*
X187540000Y-97225888D01*
X188504000Y-97185888D02*
X187540000Y-97185888D01*
X188535000Y-97145888D02*
X187540000Y-97145888D01*
X188565000Y-97105888D02*
X187540000Y-97105888D01*
X188595000Y-97065888D02*
X187540000Y-97065888D01*
X188622000Y-97025888D02*
X187540000Y-97025888D01*
X188649000Y-96985888D02*
X187540000Y-96985888D01*
X188675000Y-96945888D02*
X187540000Y-96945888D01*
X188700000Y-96905888D02*
X187540000Y-96905888D01*
X188724000Y-96865888D02*
X187540000Y-96865888D01*
X188747000Y-96825888D02*
X187540000Y-96825888D01*
X188768000Y-96785888D02*
X187540000Y-96785888D01*
X188790000Y-96745888D02*
X187540000Y-96745888D01*
X188810000Y-96705888D02*
X187540000Y-96705888D01*
X188829000Y-96665888D02*
X187540000Y-96665888D01*
X188848000Y-96625888D02*
X187540000Y-96625888D01*
X188865000Y-96585888D02*
X187540000Y-96585888D01*
X188882000Y-96545888D02*
X187540000Y-96545888D01*
X188898000Y-96505888D02*
X187540000Y-96505888D01*
X188914000Y-96465888D02*
X187540000Y-96465888D01*
X188928000Y-96425888D02*
X187540000Y-96425888D01*
X188942000Y-96385888D02*
X187540000Y-96385888D01*
X188955000Y-96345888D02*
X187540000Y-96345888D01*
X188968000Y-96305888D02*
X187540000Y-96305888D01*
X188980000Y-96265888D02*
X187540000Y-96265888D01*
X188991000Y-96224888D02*
X187540000Y-96224888D01*
X189001000Y-96184888D02*
X187540000Y-96184888D01*
X189011000Y-96144888D02*
X187540000Y-96144888D01*
X189020000Y-96104888D02*
X187540000Y-96104888D01*
X189028000Y-96064888D02*
X187540000Y-96064888D01*
X189036000Y-96024888D02*
X187540000Y-96024888D01*
X189043000Y-95984888D02*
X187540000Y-95984888D01*
X189050000Y-95944888D02*
X187540000Y-95944888D01*
X189056000Y-95904888D02*
X187540000Y-95904888D01*
X189061000Y-95864888D02*
X187540000Y-95864888D01*
X189065000Y-95824888D02*
X187540000Y-95824888D01*
X189069000Y-95784888D02*
X187540000Y-95784888D01*
X189073000Y-95744888D02*
X187540000Y-95744888D01*
X189076000Y-95704888D02*
X187540000Y-95704888D01*
X189078000Y-95664888D02*
X187540000Y-95664888D01*
X189079000Y-95624888D02*
X187540000Y-95624888D01*
X189080000Y-95544888D02*
X187540000Y-95544888D01*
X189080000Y-95584888D02*
X187540000Y-95584888D01*
X189120000Y-95544888D02*
G75*
G02*
X183880000Y-95544888I-2620000J0D01*
G01*
X183880000Y-95544888D02*
G75*
G02*
X189120000Y-95544888I2620000J0D01*
G01*
%TO.C,U2*%
X139795000Y-111840000D02*
X139795000Y-113490000D01*
X139795000Y-115490000D02*
X139795000Y-117140000D01*
X139795000Y-117140000D02*
X160235000Y-117140000D01*
X160235000Y-111840000D02*
X139795000Y-111840000D01*
X160235000Y-117140000D02*
X160235000Y-111840000D01*
X139795000Y-113490000D02*
G75*
G02*
X139795000Y-115490000I0J-1000000D01*
G01*
%TO.C,U3*%
X168880000Y-97825000D02*
X168880000Y-93184000D01*
X172149000Y-97825000D02*
X172149000Y-96315000D01*
X175850000Y-97825000D02*
X175850000Y-96315000D01*
X179120000Y-93184000D02*
X168880000Y-93184000D01*
X179120000Y-96315000D02*
X168880000Y-96315000D01*
X179120000Y-97825000D02*
X168880000Y-97825000D01*
X179120000Y-97825000D02*
X179120000Y-93184000D01*
%TD*%
M02*
