M48
; DRILL file {KiCad 8.0.8} date 2025-03-03T11:51:34-0500
; FORMAT={-:-/ absolute / inch / decimal}
; #@! TF.CreationDate,2025-03-03T11:51:34-05:00
; #@! TF.GenerationSoftware,Kicad,Pcbnew,8.0.8
; #@! TF.FileFunction,Plated,1,2,PTH
FMAT,2
INCH
; #@! TA.AperFunction,Plated,PTH,ViaDrill
T1C0.0256
; #@! TA.AperFunction,Plated,PTH,ComponentDrill
T2C0.0315
; #@! TA.AperFunction,Plated,PTH,ComponentDrill
T3C0.0354
; #@! TA.AperFunction,Plated,PTH,ComponentDrill
T4C0.0394
; #@! TA.AperFunction,Plated,PTH,ComponentDrill
T5C0.0433
; #@! TA.AperFunction,Plated,PTH,ComponentDrill
T6C0.0598
%
G90
G05
T1
X5.748Y-5.1575
X5.7579Y-4.7736
X6.1811Y-3.8583
X6.2598Y-4.8228
X6.2992Y-4.2144
X6.752Y-4.8228
X6.7913Y-2.1063
X6.7913Y-3.189
X7.126Y-2.1457
X7.2835Y-1.9291
T2
X5.5561Y-4.3575
X5.5561Y-4.6575
X5.6561Y-4.3575
X5.6561Y-4.6575
X5.7561Y-4.3575
X5.7561Y-4.6575
X5.8561Y-4.3575
X5.8561Y-4.6575
X5.9561Y-4.3575
X5.9561Y-4.6575
X5.986Y-4.1142
X6.0561Y-4.3575
X6.0561Y-4.6575
X6.0648Y-4.1142
X6.1561Y-4.3575
X6.1561Y-4.6575
X6.2561Y-4.3575
X6.2561Y-4.6575
X6.4961Y-3.9585
X6.4961Y-4.0372
X6.8504Y-4.4685
X6.8504Y-4.5472
X7.3425Y-3.7222
X7.3425Y-3.801
T3
X5.3571Y-2.323
X5.3571Y-2.423
X5.3571Y-2.523
X5.3571Y-2.623
X5.3571Y-2.723
X5.3571Y-2.823
X5.3571Y-2.923
X5.3571Y-3.023
X5.3571Y-3.123
X5.3571Y-3.223
X5.3571Y-3.323
X5.3571Y-3.423
X5.3571Y-3.523
X5.3571Y-3.623
X5.3571Y-3.723
X6.2571Y-2.323
X6.2571Y-2.423
X6.2571Y-2.523
X6.2571Y-2.623
X6.2571Y-2.723
X6.2571Y-2.823
X6.2571Y-2.923
X6.2571Y-3.023
X6.2571Y-3.123
X6.2571Y-3.223
X6.2571Y-3.323
X6.2571Y-3.423
X6.2571Y-3.523
X6.2571Y-3.623
X6.2571Y-3.723
T5
X6.7504Y-3.7226
X6.8504Y-3.7226
X6.9504Y-3.7226
T6
X4.1929Y-2.6087
X4.1929Y-2.8087
X4.1929Y-3.0087
X4.1929Y-3.2087
X5.937Y-5.1575
X6.137Y-5.1575
X6.337Y-5.1575
X6.537Y-5.1575
X6.7094Y-1.8898
X6.737Y-5.1575
X6.9094Y-1.8898
X6.937Y-5.1575
X7.1094Y-1.8898
X7.5591Y-2.0512
X7.5591Y-2.2512
X7.5591Y-2.4512
X7.5591Y-2.6512
X7.5591Y-2.8512
X7.5591Y-3.0512
X7.5591Y-3.2512
X7.5591Y-3.4512
T4
G00X7.2638Y-4.311
M15
G01X7.2638Y-4.2323
M16
G05
G00X7.4213Y-4.0866
M15
G01X7.3425Y-4.0866
M16
G05
G00X7.5Y-4.311
M15
G01X7.5Y-4.2323
M16
G05
M30
