%TF.GenerationSoftware,KiCad,Pcbnew,8.0.8*%
%TF.CreationDate,2025-03-03T11:51:37-05:00*%
%TF.ProjectId,PCB Andres Ortiz,50434220-416e-4647-9265-73204f727469,rev?*%
%TF.SameCoordinates,Original*%
%TF.FileFunction,Copper,L2,Bot*%
%TF.FilePolarity,Positive*%
%FSLAX46Y46*%
G04 Gerber Fmt 4.6, Leading zero omitted, Abs format (unit mm)*
G04 Created by KiCad (PCBNEW 8.0.8) date 2025-03-03 11:51:37*
%MOMM*%
%LPD*%
G01*
G04 APERTURE LIST*
G04 Aperture macros list*
%AMRoundRect*
0 Rectangle with rounded corners*
0 $1 Rounding radius*
0 $2 $3 $4 $5 $6 $7 $8 $9 X,Y pos of 4 corners*
0 Add a 4 corners polygon primitive as box body*
4,1,4,$2,$3,$4,$5,$6,$7,$8,$9,$2,$3,0*
0 Add four circle primitives for the rounded corners*
1,1,$1+$1,$2,$3*
1,1,$1+$1,$4,$5*
1,1,$1+$1,$6,$7*
1,1,$1+$1,$8,$9*
0 Add four rect primitives between the rounded corners*
20,1,$1+$1,$2,$3,$4,$5,0*
20,1,$1+$1,$4,$5,$6,$7,0*
20,1,$1+$1,$6,$7,$8,$9,0*
20,1,$1+$1,$8,$9,$2,$3,0*%
G04 Aperture macros list end*
%TA.AperFunction,ComponentPad*%
%ADD10R,3.000000X3.000000*%
%TD*%
%TA.AperFunction,ComponentPad*%
%ADD11C,3.000000*%
%TD*%
%TA.AperFunction,ComponentPad*%
%ADD12R,3.500000X3.500000*%
%TD*%
%TA.AperFunction,ComponentPad*%
%ADD13RoundRect,0.750000X0.750000X1.000000X-0.750000X1.000000X-0.750000X-1.000000X0.750000X-1.000000X0*%
%TD*%
%TA.AperFunction,ComponentPad*%
%ADD14RoundRect,0.875000X0.875000X0.875000X-0.875000X0.875000X-0.875000X-0.875000X0.875000X-0.875000X0*%
%TD*%
%TA.AperFunction,ComponentPad*%
%ADD15R,1.600000X1.600000*%
%TD*%
%TA.AperFunction,ComponentPad*%
%ADD16C,1.600000*%
%TD*%
%TA.AperFunction,ComponentPad*%
%ADD17R,1.500000X1.500000*%
%TD*%
%TA.AperFunction,ComponentPad*%
%ADD18C,1.500000*%
%TD*%
%TA.AperFunction,ComponentPad*%
%ADD19O,1.600000X1.600000*%
%TD*%
%TA.AperFunction,ComponentPad*%
%ADD20R,1.905000X2.000000*%
%TD*%
%TA.AperFunction,ComponentPad*%
%ADD21O,1.905000X2.000000*%
%TD*%
%TA.AperFunction,ViaPad*%
%ADD22C,1.300000*%
%TD*%
%TA.AperFunction,ViaPad*%
%ADD23C,1.100000*%
%TD*%
%TA.AperFunction,Conductor*%
%ADD24C,1.000000*%
%TD*%
%TA.AperFunction,Conductor*%
%ADD25C,0.600000*%
%TD*%
G04 APERTURE END LIST*
D10*
%TO.P,J6,1,Pin_1*%
%TO.N,GND*%
X170420000Y-48000000D03*
D11*
%TO.P,J6,2,Pin_2*%
%TO.N,/turbi1*%
X175500000Y-48000000D03*
%TO.P,J6,3,Pin_3*%
%TO.N,/3.3v*%
X180580000Y-48000000D03*
%TD*%
D12*
%TO.P,J5,1*%
%TO.N,/VCC*%
X184500000Y-108500000D03*
D13*
%TO.P,J5,2*%
%TO.N,GND*%
X190500000Y-108500000D03*
D14*
%TO.P,J5,3*%
X187500000Y-103800000D03*
%TD*%
D10*
%TO.P,J2,1,Pin_1*%
%TO.N,GND*%
X192000000Y-87660000D03*
D11*
%TO.P,J2,2,Pin_2*%
X192000000Y-82580000D03*
%TO.P,J2,3,Pin_3*%
%TO.N,/S1*%
X192000000Y-77500000D03*
%TO.P,J2,4,Pin_4*%
%TO.N,/S0*%
X192000000Y-72420000D03*
%TO.P,J2,5,Pin_5*%
%TO.N,/S3*%
X192000000Y-67340000D03*
%TO.P,J2,6,Pin_6*%
%TO.N,/S2*%
X192000000Y-62260000D03*
%TO.P,J2,7,Pin_7*%
%TO.N,/OUT*%
X192000000Y-57180000D03*
%TO.P,J2,8,Pin_8*%
%TO.N,/3.3v*%
X192000000Y-52100000D03*
%TD*%
D15*
%TO.P,C4,1*%
%TO.N,+5V*%
X165000000Y-100544888D03*
D16*
%TO.P,C4,2*%
%TO.N,GND*%
X165000000Y-102544888D03*
%TD*%
D10*
%TO.P,J4,1,Pin_1*%
%TO.N,/3.3v*%
X106500000Y-66260000D03*
D11*
%TO.P,J4,2,Pin_2*%
%TO.N,GND*%
X106500000Y-71340000D03*
%TO.P,J4,3,Pin_3*%
%TO.N,/SDA*%
X106500000Y-76420000D03*
%TO.P,J4,4,Pin_4*%
%TO.N,/SCL*%
X106500000Y-81500000D03*
%TD*%
D15*
%TO.P,C1,1*%
%TO.N,/VCC*%
X174000000Y-115500000D03*
D16*
%TO.P,C1,2*%
%TO.N,GND*%
X174000000Y-113500000D03*
%TD*%
D15*
%TO.P,C2,1*%
%TO.N,+5V*%
X152044888Y-104500000D03*
D16*
%TO.P,C2,2*%
%TO.N,GND*%
X154044888Y-104500000D03*
%TD*%
D17*
%TO.P,U1,1,3V3*%
%TO.N,/3.3v*%
X136070000Y-59005000D03*
D18*
%TO.P,U1,2,GND*%
%TO.N,GND*%
X136070000Y-61545000D03*
%TO.P,U1,3,D15*%
%TO.N,unconnected-(U1-D15-Pad3)*%
X136070000Y-64085000D03*
%TO.P,U1,4,D2*%
%TO.N,unconnected-(U1-D2-Pad4)*%
X136070000Y-66625000D03*
%TO.P,U1,5,D4*%
%TO.N,unconnected-(U1-D4-Pad5)*%
X136070000Y-69165000D03*
%TO.P,U1,6,RX2*%
%TO.N,unconnected-(U1-RX2-Pad6)*%
X136070000Y-71705000D03*
%TO.P,U1,7,TX2*%
%TO.N,unconnected-(U1-TX2-Pad7)*%
X136070000Y-74245000D03*
%TO.P,U1,8,D5*%
%TO.N,unconnected-(U1-D5-Pad8)*%
X136070000Y-76785000D03*
%TO.P,U1,9,D18*%
%TO.N,/2a*%
X136070000Y-79325000D03*
%TO.P,U1,10,D19*%
%TO.N,/1a*%
X136070000Y-81865000D03*
%TO.P,U1,11,D21*%
%TO.N,/SDA*%
X136070000Y-84405000D03*
%TO.P,U1,12,RX0*%
%TO.N,unconnected-(U1-RX0-Pad12)*%
X136070000Y-86945000D03*
%TO.P,U1,13,TX0*%
%TO.N,unconnected-(U1-TX0-Pad13)*%
X136070000Y-89485000D03*
%TO.P,U1,14,D22*%
%TO.N,/SCL*%
X136070000Y-92025000D03*
%TO.P,U1,15,D23*%
%TO.N,unconnected-(U1-D23-Pad15)*%
X136070000Y-94565000D03*
%TO.P,U1,16,EN*%
%TO.N,unconnected-(U1-EN-Pad16)*%
X158930000Y-94565000D03*
%TO.P,U1,17,VP*%
%TO.N,unconnected-(U1-VP-Pad17)*%
X158930000Y-92025000D03*
%TO.P,U1,18,VN*%
%TO.N,unconnected-(U1-VN-Pad18)*%
X158930000Y-89485000D03*
%TO.P,U1,19,D34*%
%TO.N,/turbi1*%
X158930000Y-86945000D03*
%TO.P,U1,20,D35*%
%TO.N,unconnected-(U1-D35-Pad20)*%
X158930000Y-84405000D03*
%TO.P,U1,21,D32*%
%TO.N,unconnected-(U1-D32-Pad21)*%
X158930000Y-81865000D03*
%TO.P,U1,22,D33*%
%TO.N,unconnected-(U1-D33-Pad22)*%
X158930000Y-79325000D03*
%TO.P,U1,23,D25*%
%TO.N,/3a*%
X158930000Y-76785000D03*
%TO.P,U1,24,D26*%
%TO.N,/S1*%
X158930000Y-74245000D03*
%TO.P,U1,25,D27*%
%TO.N,/S0*%
X158930000Y-71705000D03*
%TO.P,U1,26,D14*%
%TO.N,/S3*%
X158930000Y-69165000D03*
%TO.P,U1,27,D12*%
%TO.N,/S2*%
X158930000Y-66625000D03*
%TO.P,U1,28,D13*%
%TO.N,/OUT*%
X158930000Y-64085000D03*
%TO.P,U1,29,GND*%
%TO.N,GND*%
X158930000Y-61545000D03*
%TO.P,U1,30,VIN*%
%TO.N,+5V*%
X158930000Y-59005000D03*
%TD*%
D10*
%TO.P,J3,1,Pin_1*%
%TO.N,/1y*%
X150800000Y-131000000D03*
D11*
%TO.P,J3,2,Pin_2*%
%TO.N,/2y*%
X155880000Y-131000000D03*
%TO.P,J3,3,Pin_3*%
%TO.N,/3y*%
X160960000Y-131000000D03*
%TO.P,J3,4,Pin_4*%
%TO.N,GND*%
X166040000Y-131000000D03*
%TO.P,J3,5,Pin_5*%
X171120000Y-131000000D03*
%TO.P,J3,6,Pin_6*%
X176200000Y-131000000D03*
%TD*%
D15*
%TO.P,C3,1*%
%TO.N,/VCC*%
X186500000Y-94544888D03*
D16*
%TO.P,C3,2*%
%TO.N,GND*%
X186500000Y-96544888D03*
%TD*%
D15*
%TO.P,U2,1,EN1\u002C2*%
%TO.N,unconnected-(U2-EN1\u002C2-Pad1)*%
X141125000Y-118300000D03*
D19*
%TO.P,U2,2,1A*%
%TO.N,/1a*%
X143665000Y-118300000D03*
%TO.P,U2,3,1Y*%
%TO.N,/1y*%
X146205000Y-118300000D03*
%TO.P,U2,4,GND*%
%TO.N,GND*%
X148745000Y-118300000D03*
%TO.P,U2,5,GND*%
X151285000Y-118300000D03*
%TO.P,U2,6,2Y*%
%TO.N,/2y*%
X153825000Y-118300000D03*
%TO.P,U2,7,2A*%
%TO.N,/2a*%
X156365000Y-118300000D03*
%TO.P,U2,8,VCC2*%
%TO.N,/VCC*%
X158905000Y-118300000D03*
%TO.P,U2,9,EN3\u002C4*%
%TO.N,unconnected-(U2-EN3\u002C4-Pad9)*%
X158905000Y-110680000D03*
%TO.P,U2,10,3A*%
%TO.N,/3a*%
X156365000Y-110680000D03*
%TO.P,U2,11,3Y*%
%TO.N,/3y*%
X153825000Y-110680000D03*
%TO.P,U2,12,GND*%
%TO.N,GND*%
X151285000Y-110680000D03*
%TO.P,U2,13,GND*%
X148745000Y-110680000D03*
%TO.P,U2,14,4Y*%
%TO.N,unconnected-(U2-4Y-Pad14)*%
X146205000Y-110680000D03*
%TO.P,U2,15,4A*%
%TO.N,unconnected-(U2-4A-Pad15)*%
X143665000Y-110680000D03*
%TO.P,U2,16,VCC1*%
%TO.N,+5V*%
X141125000Y-110680000D03*
%TD*%
D20*
%TO.P,U3,1,IN*%
%TO.N,/VCC*%
X176540000Y-94555000D03*
D21*
%TO.P,U3,2,GND*%
%TO.N,GND*%
X174000000Y-94555000D03*
%TO.P,U3,3,OUT*%
%TO.N,+5V*%
X171460000Y-94555000D03*
%TD*%
D22*
%TO.N,GND*%
X181000000Y-54500000D03*
X185000000Y-49000000D03*
%TO.N,/1y*%
X146000000Y-131000000D03*
X146250000Y-121250000D03*
%TO.N,/VCC*%
X171500000Y-122500000D03*
X159000000Y-122500000D03*
D23*
%TO.N,/3a*%
X160000000Y-107045000D03*
X157000000Y-98000000D03*
%TO.N,/turbi1*%
X172500000Y-81000000D03*
X172500000Y-53500000D03*
%TD*%
D24*
%TO.N,/3.3v*%
X106500000Y-66260000D02*
X111240000Y-66260000D01*
X151575000Y-43500000D02*
X136070000Y-59005000D01*
X192000000Y-52100000D02*
X183100000Y-52100000D01*
X180580000Y-45580000D02*
X178500000Y-43500000D01*
X111240000Y-66260000D02*
X118495000Y-59005000D01*
X178500000Y-43500000D02*
X151575000Y-43500000D01*
X118495000Y-59005000D02*
X136070000Y-59005000D01*
X180580000Y-48000000D02*
X180580000Y-45580000D01*
X180580000Y-49580000D02*
X180580000Y-48000000D01*
X183100000Y-52100000D02*
X180580000Y-49580000D01*
D25*
%TO.N,/S3*%
X159095000Y-69000000D02*
X158930000Y-69165000D01*
X189160000Y-67340000D02*
X187500000Y-69000000D01*
X192000000Y-67340000D02*
X189160000Y-67340000D01*
X187500000Y-69000000D02*
X159095000Y-69000000D01*
%TO.N,/S2*%
X192000000Y-62260000D02*
X191240000Y-61500000D01*
X191240000Y-61500000D02*
X180000000Y-61500000D01*
X174875000Y-66625000D02*
X158930000Y-66625000D01*
X180000000Y-61500000D02*
X174875000Y-66625000D01*
%TO.N,/OUT*%
X192000000Y-57180000D02*
X180320000Y-57180000D01*
X180320000Y-57180000D02*
X173415000Y-64085000D01*
X173415000Y-64085000D02*
X158930000Y-64085000D01*
%TO.N,/S1*%
X166750000Y-74000000D02*
X159175000Y-74000000D01*
X170250000Y-77500000D02*
X166750000Y-74000000D01*
X192000000Y-77500000D02*
X170250000Y-77500000D01*
X159175000Y-74000000D02*
X158930000Y-74245000D01*
%TO.N,/S0*%
X159135000Y-71500000D02*
X158930000Y-71705000D01*
X170500000Y-71500000D02*
X159135000Y-71500000D01*
X192000000Y-72420000D02*
X171420000Y-72420000D01*
X171420000Y-72420000D02*
X170500000Y-71500000D01*
D24*
%TO.N,/3y*%
X153825000Y-110680000D02*
X153825000Y-110825000D01*
X161000000Y-115000000D02*
X163000000Y-117000000D01*
X158000000Y-115000000D02*
X161000000Y-115000000D01*
X163000000Y-117000000D02*
X163000000Y-128960000D01*
X153825000Y-110825000D02*
X158000000Y-115000000D01*
X163000000Y-128960000D02*
X160960000Y-131000000D01*
%TO.N,/1y*%
X146205000Y-121205000D02*
X146205000Y-118300000D01*
X150800000Y-131000000D02*
X146000000Y-131000000D01*
X146250000Y-121250000D02*
X146205000Y-121205000D01*
%TO.N,/2y*%
X153825000Y-126325000D02*
X153825000Y-118300000D01*
X155880000Y-131000000D02*
X155880000Y-128380000D01*
X155880000Y-128380000D02*
X153825000Y-126325000D01*
%TO.N,/VCC*%
X182500000Y-110500000D02*
X184500000Y-108500000D01*
X159000000Y-118395000D02*
X158905000Y-118300000D01*
X174000000Y-115500000D02*
X177500000Y-115500000D01*
X176540000Y-94555000D02*
X180000000Y-94555000D01*
X180750000Y-112250000D02*
X180750000Y-95305000D01*
X180000000Y-94555000D02*
X182000000Y-94555000D01*
X174000000Y-120000000D02*
X174000000Y-115500000D01*
X180250000Y-112750000D02*
X182500000Y-110500000D01*
X171500000Y-122500000D02*
X174000000Y-120000000D01*
X180750000Y-95305000D02*
X180000000Y-94555000D01*
X159000000Y-122500000D02*
X159000000Y-118395000D01*
X180250000Y-112750000D02*
X180750000Y-112250000D01*
X186489888Y-94555000D02*
X186500000Y-94544888D01*
X177500000Y-115500000D02*
X180250000Y-112750000D01*
X182000000Y-94555000D02*
X186489888Y-94555000D01*
D25*
%TO.N,/SCL*%
X106500000Y-81500000D02*
X117000000Y-81500000D01*
X127525000Y-92025000D02*
X136070000Y-92025000D01*
X117000000Y-81500000D02*
X127525000Y-92025000D01*
%TO.N,/SDA*%
X125905000Y-84405000D02*
X136070000Y-84405000D01*
X117920000Y-76420000D02*
X125905000Y-84405000D01*
X106500000Y-76420000D02*
X117920000Y-76420000D01*
D24*
%TO.N,+5V*%
X165000000Y-100544888D02*
X165000000Y-98500000D01*
X162500000Y-96000000D02*
X158000000Y-100500000D01*
X171460000Y-94555000D02*
X163945000Y-94555000D01*
X141125000Y-107875000D02*
X143195000Y-105805000D01*
X150995000Y-59005000D02*
X158930000Y-59005000D01*
X147000000Y-104500000D02*
X146000000Y-105500000D01*
X158000000Y-100500000D02*
X146000000Y-100500000D01*
X141125000Y-110680000D02*
X141125000Y-107875000D01*
X146000000Y-100500000D02*
X146000000Y-64000000D01*
X143195000Y-105805000D02*
X146000000Y-105805000D01*
X146000000Y-105805000D02*
X146000000Y-105500000D01*
X163945000Y-94555000D02*
X162500000Y-96000000D01*
X146000000Y-64000000D02*
X150995000Y-59005000D01*
X146000000Y-105500000D02*
X146000000Y-100500000D01*
X165000000Y-98500000D02*
X162500000Y-96000000D01*
X152044888Y-104500000D02*
X147000000Y-104500000D01*
D25*
%TO.N,/1a*%
X128000000Y-120000000D02*
X128000000Y-108000000D01*
X143665000Y-119835000D02*
X137500000Y-126000000D01*
X137500000Y-126000000D02*
X134000000Y-126000000D01*
X128000000Y-108000000D02*
X140500000Y-95500000D01*
X143665000Y-118300000D02*
X143665000Y-119835000D01*
X140500000Y-84500000D02*
X137865000Y-81865000D01*
X134000000Y-126000000D02*
X128000000Y-120000000D01*
X137865000Y-81865000D02*
X136070000Y-81865000D01*
X140500000Y-95500000D02*
X140500000Y-84500000D01*
%TO.N,/2a*%
X143000000Y-83000000D02*
X139325000Y-79325000D01*
X137000000Y-112000000D02*
X137000000Y-105000000D01*
X139500000Y-114500000D02*
X137000000Y-112000000D01*
X137000000Y-105000000D02*
X143000000Y-99000000D01*
X139325000Y-79325000D02*
X136070000Y-79325000D01*
X156365000Y-118300000D02*
X152565000Y-114500000D01*
X152565000Y-114500000D02*
X139500000Y-114500000D01*
X143000000Y-99000000D02*
X143000000Y-83000000D01*
%TO.N,/3a*%
X160000000Y-107045000D02*
X156365000Y-110680000D01*
X157715000Y-76785000D02*
X158930000Y-76785000D01*
X154500000Y-95500000D02*
X154500000Y-80000000D01*
X154500000Y-95500000D02*
X157000000Y-98000000D01*
X154500000Y-80000000D02*
X157715000Y-76785000D01*
%TO.N,/turbi1*%
X166555000Y-86945000D02*
X158930000Y-86945000D01*
X172500000Y-81000000D02*
X166555000Y-86945000D01*
X172500000Y-53500000D02*
X173000000Y-53500000D01*
X175500000Y-51000000D02*
X175500000Y-48000000D01*
X173000000Y-53500000D02*
X175500000Y-51000000D01*
%TD*%
%TA.AperFunction,Conductor*%
%TO.N,GND*%
G36*
X138443039Y-41020185D02*
G01*
X138488794Y-41072989D01*
X138500000Y-41124500D01*
X138500000Y-54401610D01*
X138480315Y-54468649D01*
X138463681Y-54489291D01*
X135734790Y-57218181D01*
X135673467Y-57251666D01*
X135647109Y-57254500D01*
X135261971Y-57254500D01*
X135261965Y-57254500D01*
X135261964Y-57254501D01*
X135250316Y-57255536D01*
X135142584Y-57265113D01*
X134946954Y-57321089D01*
X134766587Y-57415305D01*
X134691413Y-57476602D01*
X134627017Y-57503711D01*
X134613053Y-57504500D01*
X118376903Y-57504500D01*
X118143631Y-57541446D01*
X117919003Y-57614433D01*
X117708565Y-57721657D01*
X117517488Y-57860484D01*
X117517487Y-57860485D01*
X110654792Y-64723181D01*
X110593469Y-64756666D01*
X110567111Y-64759500D01*
X109119079Y-64759500D01*
X109052040Y-64739815D01*
X109006285Y-64687011D01*
X108995566Y-64646479D01*
X108995240Y-64642817D01*
X108989886Y-64582582D01*
X108933909Y-64386951D01*
X108839698Y-64206593D01*
X108787684Y-64142803D01*
X108711109Y-64048890D01*
X108553409Y-63920304D01*
X108553410Y-63920304D01*
X108553407Y-63920302D01*
X108373049Y-63826091D01*
X108373048Y-63826090D01*
X108373045Y-63826089D01*
X108255829Y-63792550D01*
X108177418Y-63770114D01*
X108177415Y-63770113D01*
X108177413Y-63770113D01*
X108111102Y-63764217D01*
X108058037Y-63759500D01*
X108058032Y-63759500D01*
X104941971Y-63759500D01*
X104941965Y-63759500D01*
X104941964Y-63759501D01*
X104930316Y-63760536D01*
X104822584Y-63770113D01*
X104626954Y-63826089D01*
X104536772Y-63873196D01*
X104446593Y-63920302D01*
X104446591Y-63920303D01*
X104446590Y-63920304D01*
X104288890Y-64048890D01*
X104160304Y-64206590D01*
X104066089Y-64386954D01*
X104010114Y-64582583D01*
X104010113Y-64582586D01*
X104004758Y-64642819D01*
X104000830Y-64687011D01*
X103999500Y-64701966D01*
X103999500Y-67818028D01*
X103999501Y-67818034D01*
X104010113Y-67937415D01*
X104066089Y-68133045D01*
X104066090Y-68133048D01*
X104066091Y-68133049D01*
X104160302Y-68313407D01*
X104160304Y-68313409D01*
X104288890Y-68471109D01*
X104381968Y-68547003D01*
X104446593Y-68599698D01*
X104626951Y-68693909D01*
X104822582Y-68749886D01*
X104941963Y-68760500D01*
X108058036Y-68760499D01*
X108177418Y-68749886D01*
X108373049Y-68693909D01*
X108553407Y-68599698D01*
X108711109Y-68471109D01*
X108839698Y-68313407D01*
X108933909Y-68133049D01*
X108989886Y-67937418D01*
X108995567Y-67873518D01*
X109021111Y-67808486D01*
X109077760Y-67767587D01*
X109119080Y-67760500D01*
X111358097Y-67760500D01*
X111591368Y-67723553D01*
X111674117Y-67696666D01*
X111815992Y-67650568D01*
X112026434Y-67543343D01*
X112217510Y-67404517D01*
X119080208Y-60541819D01*
X119141531Y-60508334D01*
X119167889Y-60505500D01*
X134613053Y-60505500D01*
X134680092Y-60525185D01*
X134691413Y-60533398D01*
X134766587Y-60594694D01*
X134766590Y-60594695D01*
X134766593Y-60594698D01*
X134946951Y-60688909D01*
X135142582Y-60744886D01*
X135261963Y-60755500D01*
X136878036Y-60755499D01*
X136997418Y-60744886D01*
X137193049Y-60688909D01*
X137373407Y-60594698D01*
X137531109Y-60466109D01*
X137659698Y-60308407D01*
X137753909Y-60128049D01*
X137809886Y-59932418D01*
X137820500Y-59813037D01*
X137820499Y-59427887D01*
X137840183Y-59360849D01*
X137856813Y-59340212D01*
X138288319Y-58908706D01*
X138349642Y-58875222D01*
X138419334Y-58880206D01*
X138475267Y-58922078D01*
X138499684Y-58987542D01*
X138500000Y-58996388D01*
X138500000Y-77900500D01*
X138480315Y-77967539D01*
X138427511Y-78013294D01*
X138376000Y-78024500D01*
X137577993Y-78024500D01*
X137510954Y-78004815D01*
X137465199Y-77952011D01*
X137455255Y-77882853D01*
X137481045Y-77823188D01*
X137520386Y-77773857D01*
X137651568Y-77546643D01*
X137747420Y-77302416D01*
X137805802Y-77046630D01*
X137825408Y-76785000D01*
X137821587Y-76734015D01*
X137805803Y-76523379D01*
X137805802Y-76523374D01*
X137805802Y-76523370D01*
X137747420Y-76267584D01*
X137651568Y-76023357D01*
X137520386Y-75796143D01*
X137357835Y-75592310D01*
X137331428Y-75527626D01*
X137344183Y-75458931D01*
X137357832Y-75437693D01*
X137520386Y-75233857D01*
X137651568Y-75006643D01*
X137747420Y-74762416D01*
X137805802Y-74506630D01*
X137807085Y-74489515D01*
X137825408Y-74245004D01*
X137825408Y-74244995D01*
X137805803Y-73983379D01*
X137805802Y-73983374D01*
X137805802Y-73983370D01*
X137747420Y-73727584D01*
X137651568Y-73483357D01*
X137520386Y-73256143D01*
X137357835Y-73052310D01*
X137331428Y-72987626D01*
X137344183Y-72918931D01*
X137357832Y-72897693D01*
X137520386Y-72693857D01*
X137651568Y-72466643D01*
X137747420Y-72222416D01*
X137805802Y-71966630D01*
X137825408Y-71705000D01*
X137809872Y-71497685D01*
X137805803Y-71443379D01*
X137805802Y-71443374D01*
X137805802Y-71443370D01*
X137747420Y-71187584D01*
X137651568Y-70943357D01*
X137520386Y-70716143D01*
X137357835Y-70512310D01*
X137331428Y-70447626D01*
X137344183Y-70378931D01*
X137357832Y-70357693D01*
X137520386Y-70153857D01*
X137651568Y-69926643D01*
X137747420Y-69682416D01*
X137805802Y-69426630D01*
X137805803Y-69426620D01*
X137825408Y-69165004D01*
X137825408Y-69164995D01*
X137805803Y-68903379D01*
X137805802Y-68903374D01*
X137805802Y-68903370D01*
X137747420Y-68647584D01*
X137651568Y-68403357D01*
X137520386Y-68176143D01*
X137357835Y-67972310D01*
X137331428Y-67907626D01*
X137344183Y-67838931D01*
X137357832Y-67817693D01*
X137520386Y-67613857D01*
X137651568Y-67386643D01*
X137747420Y-67142416D01*
X137805802Y-66886630D01*
X137825408Y-66625000D01*
X137809872Y-66417685D01*
X137805803Y-66363379D01*
X137805802Y-66363374D01*
X137805802Y-66363370D01*
X137747420Y-66107584D01*
X137651568Y-65863357D01*
X137520386Y-65636143D01*
X137357835Y-65432310D01*
X137331428Y-65367626D01*
X137344183Y-65298931D01*
X137357832Y-65277693D01*
X137520386Y-65073857D01*
X137651568Y-64846643D01*
X137747420Y-64602416D01*
X137805802Y-64346630D01*
X137816296Y-64206593D01*
X137825408Y-64085004D01*
X137825408Y-64084995D01*
X137805803Y-63823379D01*
X137805802Y-63823374D01*
X137805802Y-63823370D01*
X137747420Y-63567584D01*
X137651568Y-63323357D01*
X137520386Y-63096143D01*
X137356805Y-62891019D01*
X137356804Y-62891018D01*
X137356801Y-62891014D01*
X137164479Y-62712567D01*
X136947704Y-62564772D01*
X136947700Y-62564770D01*
X136947697Y-62564768D01*
X136947696Y-62564767D01*
X136711325Y-62450938D01*
X136711327Y-62450938D01*
X136460623Y-62373606D01*
X136460619Y-62373605D01*
X136460615Y-62373604D01*
X136335823Y-62354794D01*
X136201187Y-62334500D01*
X136201182Y-62334500D01*
X135938818Y-62334500D01*
X135938812Y-62334500D01*
X135777247Y-62358853D01*
X135679385Y-62373604D01*
X135679382Y-62373605D01*
X135679376Y-62373606D01*
X135428673Y-62450938D01*
X135192303Y-62564767D01*
X135192302Y-62564768D01*
X134975520Y-62712567D01*
X134783198Y-62891014D01*
X134619614Y-63096143D01*
X134488432Y-63323356D01*
X134392582Y-63567578D01*
X134392576Y-63567597D01*
X134334197Y-63823374D01*
X134334196Y-63823379D01*
X134314592Y-64084995D01*
X134314592Y-64085004D01*
X134334196Y-64346620D01*
X134334197Y-64346625D01*
X134392576Y-64602402D01*
X134392578Y-64602411D01*
X134392580Y-64602416D01*
X134488432Y-64846643D01*
X134619614Y-65073857D01*
X134769218Y-65261454D01*
X134782163Y-65277687D01*
X134808572Y-65342374D01*
X134795815Y-65411069D01*
X134782163Y-65432313D01*
X134619614Y-65636143D01*
X134488432Y-65863356D01*
X134392582Y-66107578D01*
X134392576Y-66107597D01*
X134334197Y-66363374D01*
X134334196Y-66363379D01*
X134314592Y-66624995D01*
X134314592Y-66625004D01*
X134334196Y-66886620D01*
X134334197Y-66886625D01*
X134392576Y-67142402D01*
X134392578Y-67142411D01*
X134392580Y-67142416D01*
X134488432Y-67386643D01*
X134619614Y-67613857D01*
X134658949Y-67663181D01*
X134782163Y-67817687D01*
X134808572Y-67882374D01*
X134795815Y-67951069D01*
X134782163Y-67972313D01*
X134619614Y-68176143D01*
X134488432Y-68403356D01*
X134392582Y-68647578D01*
X134392576Y-68647597D01*
X134334197Y-68903374D01*
X134334196Y-68903379D01*
X134314592Y-69164995D01*
X134314592Y-69165004D01*
X134334196Y-69426620D01*
X134334197Y-69426625D01*
X134392576Y-69682402D01*
X134392578Y-69682411D01*
X134392580Y-69682416D01*
X134488432Y-69926643D01*
X134619614Y-70153857D01*
X134756282Y-70325233D01*
X134782163Y-70357687D01*
X134808572Y-70422374D01*
X134795815Y-70491069D01*
X134782163Y-70512313D01*
X134619614Y-70716143D01*
X134488432Y-70943356D01*
X134392582Y-71187578D01*
X134392576Y-71187597D01*
X134334197Y-71443374D01*
X134334196Y-71443379D01*
X134314592Y-71704995D01*
X134314592Y-71705004D01*
X134334196Y-71966620D01*
X134334197Y-71966625D01*
X134392576Y-72222402D01*
X134392578Y-72222411D01*
X134392580Y-72222416D01*
X134488432Y-72466643D01*
X134619614Y-72693857D01*
X134768988Y-72881166D01*
X134782163Y-72897687D01*
X134808572Y-72962374D01*
X134795815Y-73031069D01*
X134782163Y-73052313D01*
X134619614Y-73256143D01*
X134488432Y-73483356D01*
X134392582Y-73727578D01*
X134392576Y-73727597D01*
X134334197Y-73983374D01*
X134334196Y-73983379D01*
X134314592Y-74244995D01*
X134314592Y-74245004D01*
X134334196Y-74506620D01*
X134334197Y-74506625D01*
X134392576Y-74762402D01*
X134392578Y-74762411D01*
X134392580Y-74762416D01*
X134488432Y-75006643D01*
X134619614Y-75233857D01*
X134769218Y-75421454D01*
X134782163Y-75437687D01*
X134808572Y-75502374D01*
X134795815Y-75571069D01*
X134782163Y-75592313D01*
X134619614Y-75796143D01*
X134488432Y-76023356D01*
X134392582Y-76267578D01*
X134392576Y-76267597D01*
X134334197Y-76523374D01*
X134334196Y-76523379D01*
X134314592Y-76784995D01*
X134314592Y-76785004D01*
X134334196Y-77046620D01*
X134334197Y-77046625D01*
X134392576Y-77302402D01*
X134392578Y-77302411D01*
X134392580Y-77302416D01*
X134488432Y-77546643D01*
X134619614Y-77773857D01*
X134761687Y-77952011D01*
X134782163Y-77977687D01*
X134808572Y-78042374D01*
X134795815Y-78111069D01*
X134782163Y-78132313D01*
X134619614Y-78336143D01*
X134488432Y-78563356D01*
X134392582Y-78807578D01*
X134392576Y-78807597D01*
X134334197Y-79063374D01*
X134334196Y-79063379D01*
X134314592Y-79324995D01*
X134314592Y-79325004D01*
X134334196Y-79586620D01*
X134334197Y-79586625D01*
X134392576Y-79842402D01*
X134392578Y-79842411D01*
X134392580Y-79842416D01*
X134488432Y-80086643D01*
X134619614Y-80313857D01*
X134678515Y-80387716D01*
X134782163Y-80517687D01*
X134808572Y-80582374D01*
X134795815Y-80651069D01*
X134782163Y-80672313D01*
X134619614Y-80876143D01*
X134488432Y-81103356D01*
X134392582Y-81347578D01*
X134392576Y-81347597D01*
X134334197Y-81603374D01*
X134334196Y-81603379D01*
X134314592Y-81864995D01*
X134314592Y-81865004D01*
X134334196Y-82126620D01*
X134334197Y-82126625D01*
X134392576Y-82382402D01*
X134392578Y-82382411D01*
X134392580Y-82382416D01*
X134488432Y-82626643D01*
X134619614Y-82853857D01*
X134658954Y-82903188D01*
X134685362Y-82967873D01*
X134672607Y-83036569D01*
X134624736Y-83087463D01*
X134562007Y-83104500D01*
X126495047Y-83104500D01*
X126428008Y-83084815D01*
X126407366Y-83068181D01*
X118767221Y-75428036D01*
X118767219Y-75428034D01*
X118601611Y-75307713D01*
X118462761Y-75236966D01*
X118462758Y-75236964D01*
X118462757Y-75236963D01*
X118433922Y-75222272D01*
X118419219Y-75214780D01*
X118321876Y-75183151D01*
X118298003Y-75175394D01*
X118224535Y-75151522D01*
X118049995Y-75123878D01*
X118022352Y-75119500D01*
X118022351Y-75119500D01*
X108704375Y-75119500D01*
X108637336Y-75099815D01*
X108599678Y-75061942D01*
X108526948Y-74947338D01*
X108526945Y-74947334D01*
X108326393Y-74704909D01*
X108326391Y-74704907D01*
X108097031Y-74489523D01*
X108097021Y-74489515D01*
X107842495Y-74304591D01*
X107842488Y-74304586D01*
X107842484Y-74304584D01*
X107566766Y-74153006D01*
X107566763Y-74153004D01*
X107566758Y-74153002D01*
X107566757Y-74153001D01*
X107274228Y-74037181D01*
X107274225Y-74037180D01*
X106969476Y-73958934D01*
X106969463Y-73958932D01*
X106657329Y-73919500D01*
X106657318Y-73919500D01*
X106342682Y-73919500D01*
X106342670Y-73919500D01*
X106030536Y-73958932D01*
X106030523Y-73958934D01*
X105725774Y-74037180D01*
X105725771Y-74037181D01*
X105433242Y-74153001D01*
X105433241Y-74153002D01*
X105157516Y-74304584D01*
X105157504Y-74304591D01*
X104902978Y-74489515D01*
X104902968Y-74489523D01*
X104673608Y-74704907D01*
X104673606Y-74704909D01*
X104473054Y-74947334D01*
X104473051Y-74947338D01*
X104304464Y-75212990D01*
X104304461Y-75212996D01*
X104170499Y-75497678D01*
X104170497Y-75497683D01*
X104073270Y-75796916D01*
X104014311Y-76105988D01*
X104014310Y-76105995D01*
X103994556Y-76419994D01*
X103994556Y-76420005D01*
X104014310Y-76734004D01*
X104014311Y-76734011D01*
X104073270Y-77043083D01*
X104170497Y-77342316D01*
X104170499Y-77342321D01*
X104304461Y-77627003D01*
X104304464Y-77627009D01*
X104473051Y-77892661D01*
X104473054Y-77892665D01*
X104673606Y-78135090D01*
X104673608Y-78135092D01*
X104673610Y-78135094D01*
X104899499Y-78347218D01*
X104902968Y-78350476D01*
X104902978Y-78350484D01*
X105157504Y-78535408D01*
X105157509Y-78535410D01*
X105157516Y-78535416D01*
X105433234Y-78686994D01*
X105433239Y-78686996D01*
X105433241Y-78686997D01*
X105433242Y-78686998D01*
X105718786Y-78800051D01*
X105725775Y-78802819D01*
X105851781Y-78835171D01*
X105870180Y-78839896D01*
X105930218Y-78875634D01*
X105961403Y-78938158D01*
X105953835Y-79007616D01*
X105909916Y-79061957D01*
X105870180Y-79080104D01*
X105725770Y-79117182D01*
X105433242Y-79233001D01*
X105433241Y-79233002D01*
X105157516Y-79384584D01*
X105157504Y-79384591D01*
X104902978Y-79569515D01*
X104902968Y-79569523D01*
X104673608Y-79784907D01*
X104673606Y-79784909D01*
X104473054Y-80027334D01*
X104473051Y-80027338D01*
X104304464Y-80292990D01*
X104304461Y-80292996D01*
X104170499Y-80577678D01*
X104170497Y-80577683D01*
X104073270Y-80876916D01*
X104014311Y-81185988D01*
X104014310Y-81185995D01*
X103994556Y-81499994D01*
X103994556Y-81500005D01*
X104014310Y-81814004D01*
X104014311Y-81814011D01*
X104033418Y-81914173D01*
X104068820Y-82099759D01*
X104073270Y-82123083D01*
X104170497Y-82422316D01*
X104170499Y-82422321D01*
X104304461Y-82707003D01*
X104304464Y-82707009D01*
X104473051Y-82972661D01*
X104473054Y-82972665D01*
X104673606Y-83215090D01*
X104673608Y-83215092D01*
X104902968Y-83430476D01*
X104902978Y-83430484D01*
X105157504Y-83615408D01*
X105157509Y-83615410D01*
X105157516Y-83615416D01*
X105433234Y-83766994D01*
X105433239Y-83766996D01*
X105433241Y-83766997D01*
X105433242Y-83766998D01*
X105725771Y-83882818D01*
X105725774Y-83882819D01*
X106030523Y-83961065D01*
X106030527Y-83961066D01*
X106096010Y-83969338D01*
X106342670Y-84000499D01*
X106342679Y-84000499D01*
X106342682Y-84000500D01*
X106342684Y-84000500D01*
X106657316Y-84000500D01*
X106657318Y-84000500D01*
X106657321Y-84000499D01*
X106657329Y-84000499D01*
X106843593Y-83976968D01*
X106969473Y-83961066D01*
X107274225Y-83882819D01*
X107274228Y-83882818D01*
X107566757Y-83766998D01*
X107566758Y-83766997D01*
X107566756Y-83766997D01*
X107566766Y-83766994D01*
X107842484Y-83615416D01*
X108097030Y-83430478D01*
X108326390Y-83215094D01*
X108526947Y-82972663D01*
X108599678Y-82858058D01*
X108652220Y-82812002D01*
X108704375Y-82800500D01*
X116409953Y-82800500D01*
X116476992Y-82820185D01*
X116497634Y-82836819D01*
X126529908Y-92869092D01*
X126529922Y-92869107D01*
X126533033Y-92872218D01*
X126533034Y-92872219D01*
X126677781Y-93016966D01*
X126812026Y-93114500D01*
X126843390Y-93137287D01*
X126896665Y-93164432D01*
X127025781Y-93230221D01*
X127025784Y-93230222D01*
X127123124Y-93261849D01*
X127220466Y-93293477D01*
X127422648Y-93325500D01*
X127422649Y-93325500D01*
X127627352Y-93325500D01*
X134562007Y-93325500D01*
X134629046Y-93345185D01*
X134674801Y-93397989D01*
X134684745Y-93467147D01*
X134658954Y-93526811D01*
X134626529Y-93567472D01*
X134619614Y-93576143D01*
X134488432Y-93803356D01*
X134392582Y-94047578D01*
X134392576Y-94047597D01*
X134334197Y-94303374D01*
X134334196Y-94303379D01*
X134314592Y-94564995D01*
X134314592Y-94565004D01*
X134334196Y-94826620D01*
X134334197Y-94826625D01*
X134392576Y-95082402D01*
X134392578Y-95082411D01*
X134392580Y-95082416D01*
X134488432Y-95326643D01*
X134619614Y-95553857D01*
X134750460Y-95717933D01*
X134783198Y-95758985D01*
X134927596Y-95892965D01*
X134975521Y-95937433D01*
X135192296Y-96085228D01*
X135192301Y-96085230D01*
X135192302Y-96085231D01*
X135192303Y-96085232D01*
X135281090Y-96127989D01*
X135428673Y-96199061D01*
X135428674Y-96199061D01*
X135428677Y-96199063D01*
X135679385Y-96276396D01*
X135938818Y-96315500D01*
X136201182Y-96315500D01*
X136460615Y-96276396D01*
X136711323Y-96199063D01*
X136947704Y-96085228D01*
X137164479Y-95937433D01*
X137356805Y-95758981D01*
X137520386Y-95553857D01*
X137651568Y-95326643D01*
X137747420Y-95082416D01*
X137805802Y-94826630D01*
X137813005Y-94730513D01*
X137825408Y-94565004D01*
X137825408Y-94564995D01*
X137805803Y-94303379D01*
X137805802Y-94303374D01*
X137805802Y-94303370D01*
X137747420Y-94047584D01*
X137651568Y-93803357D01*
X137520386Y-93576143D01*
X137357835Y-93372310D01*
X137331428Y-93307626D01*
X137344183Y-93238931D01*
X137357832Y-93217693D01*
X137520386Y-93013857D01*
X137651568Y-92786643D01*
X137747420Y-92542416D01*
X137805802Y-92286630D01*
X137825408Y-92025000D01*
X137805802Y-91763370D01*
X137747420Y-91507584D01*
X137651568Y-91263357D01*
X137520386Y-91036143D01*
X137357835Y-90832310D01*
X137331428Y-90767626D01*
X137344183Y-90698931D01*
X137357832Y-90677693D01*
X137520386Y-90473857D01*
X137651568Y-90246643D01*
X137747420Y-90002416D01*
X137805802Y-89746630D01*
X137825408Y-89485000D01*
X137805802Y-89223370D01*
X137747420Y-88967584D01*
X137651568Y-88723357D01*
X137520386Y-88496143D01*
X137357835Y-88292310D01*
X137331428Y-88227626D01*
X137344183Y-88158931D01*
X137357832Y-88137693D01*
X137520386Y-87933857D01*
X137651568Y-87706643D01*
X137747420Y-87462416D01*
X137805802Y-87206630D01*
X137825408Y-86945000D01*
X137805802Y-86683370D01*
X137747420Y-86427584D01*
X137651568Y-86183357D01*
X137520386Y-85956143D01*
X137357835Y-85752310D01*
X137331428Y-85687626D01*
X137344183Y-85618931D01*
X137357832Y-85597693D01*
X137520386Y-85393857D01*
X137651568Y-85166643D01*
X137747420Y-84922416D01*
X137805802Y-84666630D01*
X137825408Y-84405000D01*
X137817754Y-84302865D01*
X137805803Y-84143379D01*
X137805802Y-84143374D01*
X137805802Y-84143370D01*
X137764192Y-83961065D01*
X137754183Y-83917212D01*
X137758456Y-83847474D01*
X137799755Y-83791116D01*
X137864967Y-83766033D01*
X137933388Y-83780187D01*
X137962752Y-83801937D01*
X138304186Y-84143370D01*
X138463681Y-84302865D01*
X138497166Y-84364188D01*
X138500000Y-84390546D01*
X138500000Y-95000000D01*
X138861453Y-95000000D01*
X138928492Y-95019685D01*
X138974247Y-95072489D01*
X138984191Y-95141647D01*
X138955166Y-95205203D01*
X138949134Y-95211681D01*
X127008036Y-107152778D01*
X126887716Y-107318384D01*
X126887711Y-107318392D01*
X126868812Y-107355482D01*
X126868813Y-107355483D01*
X126794781Y-107500776D01*
X126731522Y-107695465D01*
X126699500Y-107897648D01*
X126699500Y-120102351D01*
X126731522Y-120304534D01*
X126794781Y-120499223D01*
X126833900Y-120575996D01*
X126841246Y-120590414D01*
X126887713Y-120681611D01*
X127008034Y-120847219D01*
X127008036Y-120847221D01*
X133152786Y-126991971D01*
X133307749Y-127104556D01*
X133318390Y-127112287D01*
X133434607Y-127171503D01*
X133500776Y-127205218D01*
X133500778Y-127205218D01*
X133500781Y-127205220D01*
X133593921Y-127235483D01*
X133695465Y-127268477D01*
X133796557Y-127284488D01*
X133897648Y-127300500D01*
X133897649Y-127300500D01*
X137602351Y-127300500D01*
X137602352Y-127300500D01*
X137804535Y-127268477D01*
X137906079Y-127235483D01*
X137999219Y-127205220D01*
X138090414Y-127158753D01*
X138181611Y-127112287D01*
X138347219Y-126991966D01*
X144399884Y-120939298D01*
X144461205Y-120905815D01*
X144530897Y-120910799D01*
X144586830Y-120952671D01*
X144611247Y-121018135D01*
X144611181Y-121036709D01*
X144594396Y-121249999D01*
X144614778Y-121508990D01*
X144675427Y-121761610D01*
X144774843Y-122001623D01*
X144774845Y-122001627D01*
X144774846Y-122001628D01*
X144910588Y-122223140D01*
X145079311Y-122420689D01*
X145276860Y-122589412D01*
X145498372Y-122725154D01*
X145498374Y-122725154D01*
X145498376Y-122725156D01*
X145559693Y-122750554D01*
X145738390Y-122824573D01*
X145991006Y-122885221D01*
X146250000Y-122905604D01*
X146508994Y-122885221D01*
X146761610Y-122824573D01*
X147001628Y-122725154D01*
X147223140Y-122589412D01*
X147420689Y-122420689D01*
X147589412Y-122223140D01*
X147725154Y-122001628D01*
X147824573Y-121761610D01*
X147885221Y-121508994D01*
X147905604Y-121250000D01*
X147885221Y-120991006D01*
X147824573Y-120738390D01*
X147739714Y-120533525D01*
X147725157Y-120498379D01*
X147725156Y-120498376D01*
X147725154Y-120498372D01*
X147723768Y-120496110D01*
X147723479Y-120495087D01*
X147722946Y-120494040D01*
X147723154Y-120493933D01*
X147705500Y-120431328D01*
X147705500Y-119335284D01*
X147722113Y-119273284D01*
X147788652Y-119158034D01*
X147831743Y-119083398D01*
X147930334Y-118832195D01*
X147990383Y-118569103D01*
X148010549Y-118300000D01*
X147990383Y-118030897D01*
X147930334Y-117767805D01*
X147831743Y-117516602D01*
X147696815Y-117282898D01*
X147528561Y-117071915D01*
X147528560Y-117071914D01*
X147528557Y-117071910D01*
X147330741Y-116888365D01*
X147321270Y-116881908D01*
X147107775Y-116736349D01*
X147107769Y-116736346D01*
X147107768Y-116736345D01*
X147107767Y-116736344D01*
X146864643Y-116619263D01*
X146864645Y-116619263D01*
X146606773Y-116539720D01*
X146606767Y-116539718D01*
X146339936Y-116499500D01*
X146339929Y-116499500D01*
X146070071Y-116499500D01*
X146070063Y-116499500D01*
X145803232Y-116539718D01*
X145803226Y-116539720D01*
X145545358Y-116619262D01*
X145302230Y-116736346D01*
X145079254Y-116888368D01*
X145019340Y-116943960D01*
X144956808Y-116975128D01*
X144887351Y-116967541D01*
X144850660Y-116943960D01*
X144790745Y-116888368D01*
X144781270Y-116881908D01*
X144567775Y-116736349D01*
X144567769Y-116736346D01*
X144567768Y-116736345D01*
X144567767Y-116736344D01*
X144324643Y-116619263D01*
X144324645Y-116619263D01*
X144066773Y-116539720D01*
X144066767Y-116539718D01*
X143799936Y-116499500D01*
X143799929Y-116499500D01*
X143530071Y-116499500D01*
X143530063Y-116499500D01*
X143263232Y-116539718D01*
X143263226Y-116539720D01*
X143005358Y-116619262D01*
X142762224Y-116736349D01*
X142734919Y-116754965D01*
X142668439Y-116776463D01*
X142600890Y-116758607D01*
X142586711Y-116748611D01*
X142478412Y-116660305D01*
X142478408Y-116660303D01*
X142478407Y-116660302D01*
X142298049Y-116566091D01*
X142298048Y-116566090D01*
X142298045Y-116566089D01*
X142180829Y-116532550D01*
X142102418Y-116510114D01*
X142102415Y-116510113D01*
X142102413Y-116510113D01*
X142036102Y-116504217D01*
X141983037Y-116499500D01*
X141983032Y-116499500D01*
X140266971Y-116499500D01*
X140266965Y-116499500D01*
X140266964Y-116499501D01*
X140255727Y-116500500D01*
X140147584Y-116510113D01*
X139951954Y-116566089D01*
X139938745Y-116572989D01*
X139771593Y-116660302D01*
X139771591Y-116660303D01*
X139771590Y-116660304D01*
X139613890Y-116788890D01*
X139485304Y-116946590D01*
X139485302Y-116946593D01*
X139451602Y-117011109D01*
X139391089Y-117126954D01*
X139335114Y-117322583D01*
X139335113Y-117322586D01*
X139324500Y-117441966D01*
X139324500Y-119158028D01*
X139324501Y-119158034D01*
X139335113Y-119277415D01*
X139391089Y-119473045D01*
X139391090Y-119473048D01*
X139391091Y-119473049D01*
X139485302Y-119653407D01*
X139485304Y-119653409D01*
X139613890Y-119811109D01*
X139700719Y-119881908D01*
X139771593Y-119939698D01*
X139951951Y-120033909D01*
X140147582Y-120089886D01*
X140266963Y-120100500D01*
X141260953Y-120100499D01*
X141327992Y-120120183D01*
X141373747Y-120172987D01*
X141383691Y-120242146D01*
X141354666Y-120305702D01*
X141348634Y-120312180D01*
X136997634Y-124663181D01*
X136936311Y-124696666D01*
X136909953Y-124699500D01*
X134590047Y-124699500D01*
X134523008Y-124679815D01*
X134502366Y-124663181D01*
X129336819Y-119497634D01*
X129303334Y-119436311D01*
X129300500Y-119409953D01*
X129300500Y-108590045D01*
X129320185Y-108523006D01*
X129336814Y-108502369D01*
X141340150Y-96499032D01*
X141340157Y-96499027D01*
X141347217Y-96491966D01*
X141347219Y-96491966D01*
X141487819Y-96351366D01*
X141549142Y-96317881D01*
X141618834Y-96322865D01*
X141674767Y-96364737D01*
X141699184Y-96430201D01*
X141699500Y-96439047D01*
X141699500Y-98409953D01*
X141679815Y-98476992D01*
X141663181Y-98497634D01*
X136008036Y-104152778D01*
X135887716Y-104318384D01*
X135887711Y-104318392D01*
X135868812Y-104355482D01*
X135868813Y-104355483D01*
X135794781Y-104500776D01*
X135773974Y-104564812D01*
X135763151Y-104598123D01*
X135763151Y-104598124D01*
X135763150Y-104598123D01*
X135742890Y-104660481D01*
X135731523Y-104695464D01*
X135731522Y-104695469D01*
X135699500Y-104897648D01*
X135699500Y-112102351D01*
X135731522Y-112304534D01*
X135794781Y-112499223D01*
X135841246Y-112590414D01*
X135887713Y-112681611D01*
X136008034Y-112847219D01*
X138652781Y-115491966D01*
X138818389Y-115612287D01*
X138909585Y-115658753D01*
X139000780Y-115705220D01*
X139000786Y-115705222D01*
X139051147Y-115721584D01*
X139098121Y-115736847D01*
X139098122Y-115736848D01*
X139122458Y-115744755D01*
X139195465Y-115768477D01*
X139397648Y-115800500D01*
X151974953Y-115800500D01*
X152041992Y-115820185D01*
X152062634Y-115836819D01*
X152840146Y-116614331D01*
X152873631Y-116675654D01*
X152868647Y-116745346D01*
X152826775Y-116801279D01*
X152822327Y-116804458D01*
X152781086Y-116832575D01*
X152699258Y-116888365D01*
X152501442Y-117071910D01*
X152333185Y-117282898D01*
X152198258Y-117516599D01*
X152198256Y-117516603D01*
X152099666Y-117767804D01*
X152099664Y-117767811D01*
X152039616Y-118030898D01*
X152019451Y-118299995D01*
X152019451Y-118300004D01*
X152039616Y-118569101D01*
X152099664Y-118832188D01*
X152099666Y-118832195D01*
X152198256Y-119083396D01*
X152198258Y-119083400D01*
X152307887Y-119273284D01*
X152324500Y-119335284D01*
X152324500Y-126443097D01*
X152361446Y-126676368D01*
X152434433Y-126900996D01*
X152541657Y-127111434D01*
X152655756Y-127268477D01*
X152680484Y-127302511D01*
X154277338Y-128899365D01*
X154310823Y-128960688D01*
X154305839Y-129030380D01*
X154274542Y-129077436D01*
X154183175Y-129163235D01*
X154053608Y-129284907D01*
X154053606Y-129284909D01*
X153853054Y-129527334D01*
X153853051Y-129527338D01*
X153684464Y-129792990D01*
X153684461Y-129792996D01*
X153550500Y-130077676D01*
X153542430Y-130102513D01*
X153502991Y-130160188D01*
X153438632Y-130187385D01*
X153369786Y-130175470D01*
X153318311Y-130128225D01*
X153300499Y-130064193D01*
X153300499Y-129441971D01*
X153300499Y-129441964D01*
X153289886Y-129322582D01*
X153233909Y-129126951D01*
X153139698Y-128946593D01*
X153054339Y-128841908D01*
X153011109Y-128788890D01*
X152853409Y-128660304D01*
X152853410Y-128660304D01*
X152853407Y-128660302D01*
X152673049Y-128566091D01*
X152673048Y-128566090D01*
X152673045Y-128566089D01*
X152555829Y-128532550D01*
X152477418Y-128510114D01*
X152477415Y-128510113D01*
X152477413Y-128510113D01*
X152411102Y-128504217D01*
X152358037Y-128499500D01*
X152358032Y-128499500D01*
X149241971Y-128499500D01*
X149241965Y-128499500D01*
X149241964Y-128499501D01*
X149230316Y-128500536D01*
X149122584Y-128510113D01*
X148926954Y-128566089D01*
X148836772Y-128613196D01*
X148746593Y-128660302D01*
X148746591Y-128660303D01*
X148746590Y-128660304D01*
X148588890Y-128788890D01*
X148460304Y-128946590D01*
X148460302Y-128946593D01*
X148432724Y-128999389D01*
X148366089Y-129126954D01*
X148310114Y-129322583D01*
X148310113Y-129322586D01*
X148304433Y-129386481D01*
X148278889Y-129451514D01*
X148222240Y-129492413D01*
X148180920Y-129499500D01*
X146715103Y-129499500D01*
X146667650Y-129490061D01*
X146574589Y-129451514D01*
X146511610Y-129425427D01*
X146511609Y-129425426D01*
X146511605Y-129425425D01*
X146258990Y-129364778D01*
X146258991Y-129364778D01*
X146000000Y-129344396D01*
X145741009Y-129364778D01*
X145488389Y-129425427D01*
X145248376Y-129524843D01*
X145026859Y-129660588D01*
X144829311Y-129829311D01*
X144660588Y-130026859D01*
X144524843Y-130248376D01*
X144425427Y-130488389D01*
X144364778Y-130741009D01*
X144344396Y-131000000D01*
X144364778Y-131258990D01*
X144425427Y-131511610D01*
X144524843Y-131751623D01*
X144524845Y-131751627D01*
X144524846Y-131751628D01*
X144660588Y-131973140D01*
X144829311Y-132170689D01*
X145026860Y-132339412D01*
X145248372Y-132475154D01*
X145248374Y-132475154D01*
X145248376Y-132475156D01*
X145309562Y-132500500D01*
X145488390Y-132574573D01*
X145741006Y-132635221D01*
X146000000Y-132655604D01*
X146258994Y-132635221D01*
X146511610Y-132574573D01*
X146667650Y-132509938D01*
X146715103Y-132500500D01*
X148180921Y-132500500D01*
X148247960Y-132520185D01*
X148293715Y-132572989D01*
X148304434Y-132613521D01*
X148310113Y-132677415D01*
X148366089Y-132873045D01*
X148366090Y-132873048D01*
X148366091Y-132873049D01*
X148460302Y-133053407D01*
X148460304Y-133053409D01*
X148588890Y-133211109D01*
X148657432Y-133266997D01*
X148746593Y-133339698D01*
X148926951Y-133433909D01*
X149122582Y-133489886D01*
X149241963Y-133500500D01*
X152358036Y-133500499D01*
X152477418Y-133489886D01*
X152673049Y-133433909D01*
X152853407Y-133339698D01*
X153011109Y-133211109D01*
X153139698Y-133053407D01*
X153233909Y-132873049D01*
X153289886Y-132677418D01*
X153300500Y-132558037D01*
X153300499Y-131935805D01*
X153320183Y-131868769D01*
X153372987Y-131823014D01*
X153442146Y-131813070D01*
X153505702Y-131842095D01*
X153542429Y-131897487D01*
X153550496Y-131922315D01*
X153550499Y-131922321D01*
X153684461Y-132207003D01*
X153684464Y-132207009D01*
X153853051Y-132472661D01*
X153853054Y-132472665D01*
X154053606Y-132715090D01*
X154053608Y-132715092D01*
X154282968Y-132930476D01*
X154282978Y-132930484D01*
X154537504Y-133115408D01*
X154537509Y-133115410D01*
X154537516Y-133115416D01*
X154813234Y-133266994D01*
X154813239Y-133266996D01*
X154813241Y-133266997D01*
X154813242Y-133266998D01*
X155105771Y-133382818D01*
X155105774Y-133382819D01*
X155304757Y-133433909D01*
X155410527Y-133461066D01*
X155476010Y-133469338D01*
X155722670Y-133500499D01*
X155722679Y-133500499D01*
X155722682Y-133500500D01*
X155722684Y-133500500D01*
X156037316Y-133500500D01*
X156037318Y-133500500D01*
X156037321Y-133500499D01*
X156037329Y-133500499D01*
X156223593Y-133476968D01*
X156349473Y-133461066D01*
X156654225Y-133382819D01*
X156654228Y-133382818D01*
X156946757Y-133266998D01*
X156946758Y-133266997D01*
X156946756Y-133266997D01*
X156946766Y-133266994D01*
X157222484Y-133115416D01*
X157477030Y-132930478D01*
X157706390Y-132715094D01*
X157906947Y-132472663D01*
X158075537Y-132207007D01*
X158209503Y-131922315D01*
X158302069Y-131637424D01*
X158341506Y-131579750D01*
X158405865Y-131552552D01*
X158474711Y-131564467D01*
X158526187Y-131611711D01*
X158537931Y-131637426D01*
X158630497Y-131922316D01*
X158630499Y-131922321D01*
X158764461Y-132207003D01*
X158764464Y-132207009D01*
X158933051Y-132472661D01*
X158933054Y-132472665D01*
X159133606Y-132715090D01*
X159133608Y-132715092D01*
X159362968Y-132930476D01*
X159362978Y-132930484D01*
X159617504Y-133115408D01*
X159617509Y-133115410D01*
X159617516Y-133115416D01*
X159893234Y-133266994D01*
X159893239Y-133266996D01*
X159893241Y-133266997D01*
X159893242Y-133266998D01*
X160185771Y-133382818D01*
X160185774Y-133382819D01*
X160384757Y-133433909D01*
X160490527Y-133461066D01*
X160556010Y-133469338D01*
X160802670Y-133500499D01*
X160802679Y-133500499D01*
X160802682Y-133500500D01*
X160802684Y-133500500D01*
X161117316Y-133500500D01*
X161117318Y-133500500D01*
X161117321Y-133500499D01*
X161117329Y-133500499D01*
X161303593Y-133476968D01*
X161429473Y-133461066D01*
X161734225Y-133382819D01*
X161734228Y-133382818D01*
X162026757Y-133266998D01*
X162026758Y-133266997D01*
X162026756Y-133266997D01*
X162026766Y-133266994D01*
X162302484Y-133115416D01*
X162557030Y-132930478D01*
X162786390Y-132715094D01*
X162986947Y-132472663D01*
X163155537Y-132207007D01*
X163289503Y-131922315D01*
X163386731Y-131623079D01*
X163445688Y-131314015D01*
X163465444Y-131000000D01*
X163446265Y-130695153D01*
X163461701Y-130627010D01*
X163482335Y-130599690D01*
X164144518Y-129937510D01*
X164283343Y-129746433D01*
X164390568Y-129535992D01*
X164463553Y-129311368D01*
X164467744Y-129284906D01*
X164500500Y-129078097D01*
X164500500Y-122500000D01*
X169844396Y-122500000D01*
X169864778Y-122758990D01*
X169925427Y-123011610D01*
X170024843Y-123251623D01*
X170024845Y-123251627D01*
X170024846Y-123251628D01*
X170160588Y-123473140D01*
X170329311Y-123670689D01*
X170526860Y-123839412D01*
X170748372Y-123975154D01*
X170748374Y-123975154D01*
X170748376Y-123975156D01*
X170809693Y-124000554D01*
X170988390Y-124074573D01*
X171241006Y-124135221D01*
X171500000Y-124155604D01*
X171758994Y-124135221D01*
X172011610Y-124074573D01*
X172251628Y-123975154D01*
X172473140Y-123839412D01*
X172670689Y-123670689D01*
X172839412Y-123473140D01*
X172975154Y-123251628D01*
X173039788Y-123095584D01*
X173066665Y-123055360D01*
X175144517Y-120977510D01*
X175283343Y-120786433D01*
X175390568Y-120575992D01*
X175463553Y-120351368D01*
X175491806Y-120172987D01*
X175500500Y-120118097D01*
X175500500Y-117124500D01*
X175520185Y-117057461D01*
X175572989Y-117011706D01*
X175624500Y-117000500D01*
X177618097Y-117000500D01*
X177851368Y-116963553D01*
X177903565Y-116946593D01*
X178075992Y-116890568D01*
X178286434Y-116783343D01*
X178477510Y-116644517D01*
X181394517Y-113727510D01*
X181453067Y-113668960D01*
X181453076Y-113668950D01*
X181894518Y-113227510D01*
X181894519Y-113227507D01*
X183644518Y-111477510D01*
X183644519Y-111477507D01*
X183651579Y-111470448D01*
X183651585Y-111470441D01*
X183835208Y-111286818D01*
X183896531Y-111253333D01*
X183922889Y-111250499D01*
X186308028Y-111250499D01*
X186308036Y-111250499D01*
X186427418Y-111239886D01*
X186623049Y-111183909D01*
X186803407Y-111089698D01*
X186961109Y-110961109D01*
X187089698Y-110803407D01*
X187183909Y-110623049D01*
X187239886Y-110427418D01*
X187250500Y-110308037D01*
X187250499Y-106691964D01*
X187239886Y-106572582D01*
X187183909Y-106376951D01*
X187089698Y-106196593D01*
X187036068Y-106130821D01*
X186961109Y-106038890D01*
X186803409Y-105910304D01*
X186803410Y-105910304D01*
X186803407Y-105910302D01*
X186623049Y-105816091D01*
X186623048Y-105816090D01*
X186623045Y-105816089D01*
X186505829Y-105782550D01*
X186427418Y-105760114D01*
X186427415Y-105760113D01*
X186427413Y-105760113D01*
X186361102Y-105754217D01*
X186308037Y-105749500D01*
X186308032Y-105749500D01*
X182691971Y-105749500D01*
X182691965Y-105749500D01*
X182691964Y-105749501D01*
X182680316Y-105750536D01*
X182572584Y-105760113D01*
X182408611Y-105807031D01*
X182338743Y-105806548D01*
X182280228Y-105768367D01*
X182251643Y-105704612D01*
X182250500Y-105687815D01*
X182250500Y-96179500D01*
X182270185Y-96112461D01*
X182322989Y-96066706D01*
X182374500Y-96055500D01*
X184944135Y-96055500D01*
X185011174Y-96075185D01*
X185022493Y-96083395D01*
X185146593Y-96184586D01*
X185326951Y-96278797D01*
X185522582Y-96334774D01*
X185641963Y-96345388D01*
X187358036Y-96345387D01*
X187477418Y-96334774D01*
X187673049Y-96278797D01*
X187853407Y-96184586D01*
X188011109Y-96055997D01*
X188139698Y-95898295D01*
X188233909Y-95717937D01*
X188289886Y-95522306D01*
X188300500Y-95402925D01*
X188300499Y-93686852D01*
X188289886Y-93567470D01*
X188241391Y-93397989D01*
X188233910Y-93371842D01*
X188233909Y-93371841D01*
X188233909Y-93371839D01*
X188139698Y-93191481D01*
X188076928Y-93114500D01*
X188011109Y-93033778D01*
X187853409Y-92905192D01*
X187853410Y-92905192D01*
X187853407Y-92905190D01*
X187673049Y-92810979D01*
X187673048Y-92810978D01*
X187673045Y-92810977D01*
X187555829Y-92777438D01*
X187477418Y-92755002D01*
X187477415Y-92755001D01*
X187477413Y-92755001D01*
X187411102Y-92749105D01*
X187358037Y-92744388D01*
X187358032Y-92744388D01*
X185641971Y-92744388D01*
X185641965Y-92744388D01*
X185641964Y-92744389D01*
X185630316Y-92745424D01*
X185522584Y-92755001D01*
X185326954Y-92810977D01*
X185263946Y-92843890D01*
X185146593Y-92905190D01*
X185146591Y-92905191D01*
X185146590Y-92905192D01*
X185097188Y-92945473D01*
X184997691Y-93026602D01*
X184933298Y-93053711D01*
X184919333Y-93054500D01*
X178433852Y-93054500D01*
X178366813Y-93034815D01*
X178337247Y-93005590D01*
X178336172Y-93006467D01*
X178332195Y-93001590D01*
X178307785Y-92971653D01*
X178203609Y-92843890D01*
X178045909Y-92715304D01*
X178045910Y-92715304D01*
X178045907Y-92715302D01*
X177865549Y-92621091D01*
X177865548Y-92621090D01*
X177865545Y-92621089D01*
X177748329Y-92587550D01*
X177669918Y-92565114D01*
X177669915Y-92565113D01*
X177669913Y-92565113D01*
X177603602Y-92559217D01*
X177550537Y-92554500D01*
X177550532Y-92554500D01*
X175529471Y-92554500D01*
X175529465Y-92554500D01*
X175529464Y-92554501D01*
X175517816Y-92555536D01*
X175410084Y-92565113D01*
X175214454Y-92621089D01*
X175151111Y-92654177D01*
X175034093Y-92715302D01*
X175034091Y-92715303D01*
X175034090Y-92715304D01*
X174876390Y-92843890D01*
X174747804Y-93001590D01*
X174747802Y-93001593D01*
X174720166Y-93054500D01*
X174653589Y-93181954D01*
X174608832Y-93338376D01*
X174599257Y-93371842D01*
X174597614Y-93377583D01*
X174597613Y-93377586D01*
X174587000Y-93496966D01*
X174587000Y-95613028D01*
X174587001Y-95613034D01*
X174597613Y-95732415D01*
X174653589Y-95928045D01*
X174653590Y-95928048D01*
X174653591Y-95928049D01*
X174747802Y-96108407D01*
X174782477Y-96150933D01*
X174876390Y-96266109D01*
X174960601Y-96334773D01*
X175034093Y-96394698D01*
X175214451Y-96488909D01*
X175410082Y-96544886D01*
X175529463Y-96555500D01*
X177550536Y-96555499D01*
X177669918Y-96544886D01*
X177865549Y-96488909D01*
X178045907Y-96394698D01*
X178203609Y-96266109D01*
X178332198Y-96108407D01*
X178332198Y-96108406D01*
X178336172Y-96103533D01*
X178337839Y-96104892D01*
X178383650Y-96066117D01*
X178433852Y-96055500D01*
X179125500Y-96055500D01*
X179192539Y-96075185D01*
X179238294Y-96127989D01*
X179249500Y-96179500D01*
X179249500Y-111577111D01*
X179229815Y-111644150D01*
X179213181Y-111664792D01*
X176914792Y-113963181D01*
X176853469Y-113996666D01*
X176827111Y-113999500D01*
X175568266Y-113999500D01*
X175501227Y-113979815D01*
X175489911Y-113971606D01*
X175353407Y-113860302D01*
X175173049Y-113766091D01*
X175173048Y-113766090D01*
X175173045Y-113766089D01*
X175038214Y-113727510D01*
X174977418Y-113710114D01*
X174977415Y-113710113D01*
X174977413Y-113710113D01*
X174911102Y-113704217D01*
X174858037Y-113699500D01*
X174858032Y-113699500D01*
X173141971Y-113699500D01*
X173141965Y-113699500D01*
X173141964Y-113699501D01*
X173130316Y-113700536D01*
X173022584Y-113710113D01*
X172826954Y-113766089D01*
X172736772Y-113813196D01*
X172646593Y-113860302D01*
X172646591Y-113860303D01*
X172646590Y-113860304D01*
X172488890Y-113988890D01*
X172360304Y-114146590D01*
X172266089Y-114326954D01*
X172210114Y-114522583D01*
X172210113Y-114522586D01*
X172199500Y-114641966D01*
X172199500Y-116358028D01*
X172199501Y-116358034D01*
X172210113Y-116477415D01*
X172266089Y-116673045D01*
X172266090Y-116673048D01*
X172266091Y-116673049D01*
X172360302Y-116853407D01*
X172471603Y-116989907D01*
X172498711Y-117054300D01*
X172499500Y-117068265D01*
X172499500Y-119327110D01*
X172479815Y-119394149D01*
X172463181Y-119414791D01*
X170944641Y-120933330D01*
X170904414Y-120960209D01*
X170748374Y-121024844D01*
X170526859Y-121160588D01*
X170329311Y-121329311D01*
X170160588Y-121526859D01*
X170024843Y-121748376D01*
X169925427Y-121988389D01*
X169864778Y-122241009D01*
X169844396Y-122500000D01*
X164500500Y-122500000D01*
X164500500Y-116881902D01*
X164472592Y-116705703D01*
X164463553Y-116648632D01*
X164463552Y-116648628D01*
X164463552Y-116648627D01*
X164390569Y-116424011D01*
X164390567Y-116424006D01*
X164384637Y-116412367D01*
X164318896Y-116283343D01*
X164283343Y-116213566D01*
X164144517Y-116022490D01*
X161977510Y-113855483D01*
X161786434Y-113716657D01*
X161773591Y-113710113D01*
X161575996Y-113609433D01*
X161351368Y-113536446D01*
X161118097Y-113499500D01*
X161118092Y-113499500D01*
X158672890Y-113499500D01*
X158605851Y-113479815D01*
X158585209Y-113463181D01*
X157431815Y-112309788D01*
X157398330Y-112248465D01*
X157403314Y-112178773D01*
X157445186Y-112122840D01*
X157449626Y-112119666D01*
X157490741Y-112091635D01*
X157550660Y-112036037D01*
X157613190Y-112004870D01*
X157682647Y-112012457D01*
X157719338Y-112036036D01*
X157779259Y-112091635D01*
X158002226Y-112243651D01*
X158245359Y-112360738D01*
X158503228Y-112440280D01*
X158503229Y-112440280D01*
X158503232Y-112440281D01*
X158770063Y-112480499D01*
X158770068Y-112480499D01*
X158770071Y-112480500D01*
X158770072Y-112480500D01*
X159039928Y-112480500D01*
X159039929Y-112480500D01*
X159039936Y-112480499D01*
X159306767Y-112440281D01*
X159306768Y-112440280D01*
X159306772Y-112440280D01*
X159564641Y-112360738D01*
X159807775Y-112243651D01*
X160030741Y-112091635D01*
X160228561Y-111908085D01*
X160396815Y-111697102D01*
X160531743Y-111463398D01*
X160630334Y-111212195D01*
X160690383Y-110949103D01*
X160710549Y-110680000D01*
X160690383Y-110410897D01*
X160630334Y-110147805D01*
X160531743Y-109896602D01*
X160396815Y-109662898D01*
X160228561Y-109451915D01*
X160228560Y-109451914D01*
X160228557Y-109451910D01*
X160090658Y-109323960D01*
X160030741Y-109268365D01*
X160030737Y-109268362D01*
X159907682Y-109184464D01*
X159863380Y-109130435D01*
X159855322Y-109061032D01*
X159886064Y-108998289D01*
X159889830Y-108994353D01*
X160297183Y-108587000D01*
X160355914Y-108554109D01*
X160480612Y-108524172D01*
X160480613Y-108524172D01*
X160706085Y-108430779D01*
X160706086Y-108430778D01*
X160706089Y-108430777D01*
X160914179Y-108303259D01*
X161099759Y-108144759D01*
X161258259Y-107959179D01*
X161385777Y-107751089D01*
X161479172Y-107525612D01*
X161536146Y-107288302D01*
X161555294Y-107045000D01*
X161536146Y-106801698D01*
X161479172Y-106564388D01*
X161479169Y-106564380D01*
X161385777Y-106338910D01*
X161258262Y-106130826D01*
X161258261Y-106130823D01*
X161222453Y-106088897D01*
X161099759Y-105945241D01*
X160977063Y-105840449D01*
X160914176Y-105786738D01*
X160914173Y-105786737D01*
X160706089Y-105659222D01*
X160480618Y-105565830D01*
X160480621Y-105565830D01*
X160367555Y-105538685D01*
X160243302Y-105508854D01*
X160243300Y-105508853D01*
X160243297Y-105508853D01*
X160000000Y-105489706D01*
X159756702Y-105508853D01*
X159519380Y-105565830D01*
X159293910Y-105659222D01*
X159085826Y-105786737D01*
X159085823Y-105786738D01*
X158900241Y-105945241D01*
X158741738Y-106130823D01*
X158741737Y-106130826D01*
X158614222Y-106338911D01*
X158614220Y-106338914D01*
X158520829Y-106564383D01*
X158520826Y-106564393D01*
X158490889Y-106689084D01*
X158457997Y-106747816D01*
X156362634Y-108843181D01*
X156301311Y-108876666D01*
X156274953Y-108879500D01*
X156230063Y-108879500D01*
X155963232Y-108919718D01*
X155963226Y-108919720D01*
X155705358Y-108999262D01*
X155462230Y-109116346D01*
X155239254Y-109268368D01*
X155179340Y-109323960D01*
X155116808Y-109355128D01*
X155047351Y-109347541D01*
X155010660Y-109323960D01*
X154950745Y-109268368D01*
X154950741Y-109268365D01*
X154727775Y-109116349D01*
X154727769Y-109116346D01*
X154727768Y-109116345D01*
X154727767Y-109116344D01*
X154484643Y-108999263D01*
X154484645Y-108999263D01*
X154226773Y-108919720D01*
X154226767Y-108919718D01*
X153959936Y-108879500D01*
X153959929Y-108879500D01*
X153690071Y-108879500D01*
X153690063Y-108879500D01*
X153423232Y-108919718D01*
X153423226Y-108919720D01*
X153165358Y-108999262D01*
X152922230Y-109116346D01*
X152699258Y-109268365D01*
X152501442Y-109451910D01*
X152333185Y-109662898D01*
X152198258Y-109896599D01*
X152198256Y-109896603D01*
X152099666Y-110147804D01*
X152099664Y-110147811D01*
X152039616Y-110410898D01*
X152019451Y-110679995D01*
X152019451Y-110680004D01*
X152039616Y-110949101D01*
X152099664Y-111212188D01*
X152099666Y-111212195D01*
X152198256Y-111463396D01*
X152198258Y-111463400D01*
X152218023Y-111497634D01*
X152333185Y-111697102D01*
X152469080Y-111867509D01*
X152501442Y-111908089D01*
X152688183Y-112081358D01*
X152699259Y-112091635D01*
X152922226Y-112243651D01*
X153165359Y-112360738D01*
X153242043Y-112384391D01*
X153293174Y-112415201D01*
X157022491Y-116144519D01*
X157022496Y-116144523D01*
X157189155Y-116265606D01*
X157213567Y-116283343D01*
X157347659Y-116351666D01*
X157424003Y-116390566D01*
X157424005Y-116390566D01*
X157424008Y-116390568D01*
X157526935Y-116424011D01*
X157648631Y-116463553D01*
X157881903Y-116500500D01*
X157881908Y-116500500D01*
X157948692Y-116500500D01*
X158015731Y-116520185D01*
X158061486Y-116572989D01*
X158071430Y-116642147D01*
X158042405Y-116705703D01*
X158005976Y-116733557D01*
X158006248Y-116734027D01*
X158002631Y-116736115D01*
X158002495Y-116736219D01*
X158002352Y-116736288D01*
X158002227Y-116736348D01*
X157779254Y-116888368D01*
X157719340Y-116943960D01*
X157656808Y-116975128D01*
X157587351Y-116967541D01*
X157550660Y-116943960D01*
X157490745Y-116888368D01*
X157481270Y-116881908D01*
X157267775Y-116736349D01*
X157267769Y-116736346D01*
X157267768Y-116736345D01*
X157267767Y-116736344D01*
X157024643Y-116619263D01*
X157024645Y-116619263D01*
X156766773Y-116539720D01*
X156766767Y-116539718D01*
X156499936Y-116499500D01*
X156499929Y-116499500D01*
X156455046Y-116499500D01*
X156388007Y-116479815D01*
X156367365Y-116463181D01*
X153412221Y-113508036D01*
X153412220Y-113508035D01*
X153412219Y-113508034D01*
X153246611Y-113387713D01*
X153125476Y-113325992D01*
X153064223Y-113294781D01*
X153017515Y-113279604D01*
X152966876Y-113263151D01*
X152943003Y-113255394D01*
X152869535Y-113231522D01*
X152694995Y-113203878D01*
X152667352Y-113199500D01*
X152667351Y-113199500D01*
X140090047Y-113199500D01*
X140023008Y-113179815D01*
X140002366Y-113163181D01*
X138336819Y-111497634D01*
X138303334Y-111436311D01*
X138300500Y-111409953D01*
X138300500Y-105590047D01*
X138320185Y-105523008D01*
X138336819Y-105502366D01*
X141139685Y-102699500D01*
X143991966Y-99847219D01*
X144112286Y-99681611D01*
X144112287Y-99681610D01*
X144205220Y-99499219D01*
X144257569Y-99338106D01*
X144297007Y-99280430D01*
X144361365Y-99253232D01*
X144430212Y-99265147D01*
X144481687Y-99312391D01*
X144499500Y-99376424D01*
X144499500Y-104180500D01*
X144479815Y-104247539D01*
X144427011Y-104293294D01*
X144375500Y-104304500D01*
X143076903Y-104304500D01*
X142843631Y-104341446D01*
X142619003Y-104414433D01*
X142408565Y-104521657D01*
X142217488Y-104660484D01*
X139980484Y-106897488D01*
X139841657Y-107088565D01*
X139811052Y-107148632D01*
X139734433Y-107299003D01*
X139661446Y-107523631D01*
X139624500Y-107756902D01*
X139624500Y-109644715D01*
X139607887Y-109706715D01*
X139498258Y-109896599D01*
X139399666Y-110147804D01*
X139399664Y-110147811D01*
X139339616Y-110410898D01*
X139319451Y-110679995D01*
X139319451Y-110680004D01*
X139339616Y-110949101D01*
X139399664Y-111212188D01*
X139399666Y-111212195D01*
X139498256Y-111463396D01*
X139498258Y-111463400D01*
X139518023Y-111497634D01*
X139633185Y-111697102D01*
X139769080Y-111867509D01*
X139801442Y-111908089D01*
X139988183Y-112081358D01*
X139999259Y-112091635D01*
X140222226Y-112243651D01*
X140465359Y-112360738D01*
X140723228Y-112440280D01*
X140723229Y-112440280D01*
X140723232Y-112440281D01*
X140990063Y-112480499D01*
X140990068Y-112480499D01*
X140990071Y-112480500D01*
X140990072Y-112480500D01*
X141259928Y-112480500D01*
X141259929Y-112480500D01*
X141259936Y-112480499D01*
X141526767Y-112440281D01*
X141526768Y-112440280D01*
X141526772Y-112440280D01*
X141784641Y-112360738D01*
X142027775Y-112243651D01*
X142250741Y-112091635D01*
X142310660Y-112036037D01*
X142373190Y-112004870D01*
X142442647Y-112012457D01*
X142479338Y-112036036D01*
X142539259Y-112091635D01*
X142762226Y-112243651D01*
X143005359Y-112360738D01*
X143263228Y-112440280D01*
X143263229Y-112440280D01*
X143263232Y-112440281D01*
X143530063Y-112480499D01*
X143530068Y-112480499D01*
X143530071Y-112480500D01*
X143530072Y-112480500D01*
X143799928Y-112480500D01*
X143799929Y-112480500D01*
X143799936Y-112480499D01*
X144066767Y-112440281D01*
X144066768Y-112440280D01*
X144066772Y-112440280D01*
X144324641Y-112360738D01*
X144567775Y-112243651D01*
X144790741Y-112091635D01*
X144850660Y-112036037D01*
X144913190Y-112004870D01*
X144982647Y-112012457D01*
X145019338Y-112036036D01*
X145079259Y-112091635D01*
X145302226Y-112243651D01*
X145545359Y-112360738D01*
X145803228Y-112440280D01*
X145803229Y-112440280D01*
X145803232Y-112440281D01*
X146070063Y-112480499D01*
X146070068Y-112480499D01*
X146070071Y-112480500D01*
X146070072Y-112480500D01*
X146339928Y-112480500D01*
X146339929Y-112480500D01*
X146339936Y-112480499D01*
X146606767Y-112440281D01*
X146606768Y-112440280D01*
X146606772Y-112440280D01*
X146864641Y-112360738D01*
X147107775Y-112243651D01*
X147330741Y-112091635D01*
X147528561Y-111908085D01*
X147696815Y-111697102D01*
X147831743Y-111463398D01*
X147930334Y-111212195D01*
X147990383Y-110949103D01*
X148010549Y-110680000D01*
X147990383Y-110410897D01*
X147930334Y-110147805D01*
X147831743Y-109896602D01*
X147696815Y-109662898D01*
X147528561Y-109451915D01*
X147528560Y-109451914D01*
X147528557Y-109451910D01*
X147330741Y-109268365D01*
X147244500Y-109209567D01*
X147107775Y-109116349D01*
X147107769Y-109116346D01*
X147107768Y-109116345D01*
X147107767Y-109116344D01*
X146864643Y-108999263D01*
X146864645Y-108999263D01*
X146606773Y-108919720D01*
X146606767Y-108919718D01*
X146339936Y-108879500D01*
X146339929Y-108879500D01*
X146070071Y-108879500D01*
X146070063Y-108879500D01*
X145803232Y-108919718D01*
X145803226Y-108919720D01*
X145545358Y-108999262D01*
X145302230Y-109116346D01*
X145079254Y-109268368D01*
X145019340Y-109323960D01*
X144956808Y-109355128D01*
X144887351Y-109347541D01*
X144850660Y-109323960D01*
X144790745Y-109268368D01*
X144790741Y-109268365D01*
X144567775Y-109116349D01*
X144567769Y-109116346D01*
X144567768Y-109116345D01*
X144567767Y-109116344D01*
X144324643Y-108999263D01*
X144324645Y-108999263D01*
X144066773Y-108919720D01*
X144066767Y-108919718D01*
X143799936Y-108879500D01*
X143799929Y-108879500D01*
X143530071Y-108879500D01*
X143530063Y-108879500D01*
X143263232Y-108919718D01*
X143263226Y-108919720D01*
X143005355Y-108999263D01*
X142803301Y-109096567D01*
X142734360Y-109107919D01*
X142670225Y-109080197D01*
X142631260Y-109022201D01*
X142625500Y-108984847D01*
X142625500Y-108547889D01*
X142645185Y-108480850D01*
X142661819Y-108460208D01*
X143780208Y-107341819D01*
X143841531Y-107308334D01*
X143867889Y-107305500D01*
X146118097Y-107305500D01*
X146351368Y-107268553D01*
X146575992Y-107195568D01*
X146786433Y-107088343D01*
X146977510Y-106949517D01*
X147144517Y-106782510D01*
X147283343Y-106591433D01*
X147390568Y-106380992D01*
X147453340Y-106187799D01*
X147483590Y-106138437D01*
X147585211Y-106036818D01*
X147646534Y-106003334D01*
X147672891Y-106000500D01*
X150476622Y-106000500D01*
X150543661Y-106020185D01*
X150554976Y-106028393D01*
X150691481Y-106139698D01*
X150871839Y-106233909D01*
X151067470Y-106289886D01*
X151186851Y-106300500D01*
X152902924Y-106300499D01*
X153022306Y-106289886D01*
X153217937Y-106233909D01*
X153398295Y-106139698D01*
X153555997Y-106011109D01*
X153684586Y-105853407D01*
X153778797Y-105673049D01*
X153834774Y-105477418D01*
X153845388Y-105358037D01*
X153845387Y-103641964D01*
X153834774Y-103522582D01*
X153778797Y-103326951D01*
X153684586Y-103146593D01*
X153632572Y-103082803D01*
X153555997Y-102988890D01*
X153398297Y-102860304D01*
X153398298Y-102860304D01*
X153398295Y-102860302D01*
X153217937Y-102766091D01*
X153217936Y-102766090D01*
X153217933Y-102766089D01*
X153100717Y-102732550D01*
X153022306Y-102710114D01*
X153022303Y-102710113D01*
X153022301Y-102710113D01*
X152955990Y-102704217D01*
X152902925Y-102699500D01*
X152902920Y-102699500D01*
X151186859Y-102699500D01*
X151186853Y-102699500D01*
X151186852Y-102699501D01*
X151175204Y-102700536D01*
X151067472Y-102710113D01*
X150871842Y-102766089D01*
X150781660Y-102813196D01*
X150691481Y-102860302D01*
X150691479Y-102860303D01*
X150691478Y-102860304D01*
X150672842Y-102875500D01*
X150554981Y-102971602D01*
X150490587Y-102998711D01*
X150476622Y-102999500D01*
X147624500Y-102999500D01*
X147557461Y-102979815D01*
X147511706Y-102927011D01*
X147500500Y-102875500D01*
X147500500Y-102124500D01*
X147520185Y-102057461D01*
X147572989Y-102011706D01*
X147624500Y-102000500D01*
X158118097Y-102000500D01*
X158351368Y-101963553D01*
X158575992Y-101890568D01*
X158786434Y-101783343D01*
X158977510Y-101644517D01*
X162412319Y-98209708D01*
X162473642Y-98176223D01*
X162543334Y-98181207D01*
X162587681Y-98209708D01*
X163375026Y-98997053D01*
X163408511Y-99058376D01*
X163403527Y-99128068D01*
X163383448Y-99163093D01*
X163360305Y-99191476D01*
X163266089Y-99371842D01*
X163210114Y-99567471D01*
X163210113Y-99567474D01*
X163199500Y-99686854D01*
X163199500Y-101402916D01*
X163199501Y-101402922D01*
X163210113Y-101522303D01*
X163266089Y-101717933D01*
X163266090Y-101717936D01*
X163266091Y-101717937D01*
X163360302Y-101898295D01*
X163360304Y-101898297D01*
X163488890Y-102055997D01*
X163572903Y-102124500D01*
X163646593Y-102184586D01*
X163826951Y-102278797D01*
X164022582Y-102334774D01*
X164141963Y-102345388D01*
X165858036Y-102345387D01*
X165977418Y-102334774D01*
X166173049Y-102278797D01*
X166353407Y-102184586D01*
X166511109Y-102055997D01*
X166639698Y-101898295D01*
X166733909Y-101717937D01*
X166789886Y-101522306D01*
X166800500Y-101402925D01*
X166800499Y-99686852D01*
X166789886Y-99567470D01*
X166733909Y-99371839D01*
X166639698Y-99191481D01*
X166528398Y-99054982D01*
X166501289Y-98990585D01*
X166500500Y-98976621D01*
X166500500Y-98381902D01*
X166463553Y-98148631D01*
X166390566Y-97924003D01*
X166283342Y-97713566D01*
X166144517Y-97522490D01*
X165977510Y-97355483D01*
X164889208Y-96267181D01*
X164855723Y-96205858D01*
X164860707Y-96136166D01*
X164902579Y-96080233D01*
X164968043Y-96055816D01*
X164976889Y-96055500D01*
X170103342Y-96055500D01*
X170170381Y-96075185D01*
X170178820Y-96081117D01*
X170307034Y-96179500D01*
X170372647Y-96229847D01*
X170594353Y-96357848D01*
X170594368Y-96357855D01*
X170683316Y-96394698D01*
X170830882Y-96455822D01*
X171078171Y-96522083D01*
X171320581Y-96553997D01*
X171331978Y-96555498D01*
X171331994Y-96555500D01*
X171332001Y-96555500D01*
X171587999Y-96555500D01*
X171588006Y-96555500D01*
X171841829Y-96522083D01*
X172089118Y-96455822D01*
X172325643Y-96357850D01*
X172547357Y-96229844D01*
X172750465Y-96073993D01*
X172931493Y-95892965D01*
X173087344Y-95689857D01*
X173215350Y-95468143D01*
X173313322Y-95231618D01*
X173379583Y-94984329D01*
X173413000Y-94730506D01*
X173413000Y-94379494D01*
X173379583Y-94125671D01*
X173313322Y-93878382D01*
X173266018Y-93764182D01*
X173215355Y-93641868D01*
X173215348Y-93641853D01*
X173087347Y-93420147D01*
X173079926Y-93410476D01*
X172931493Y-93217035D01*
X172931491Y-93217033D01*
X172931488Y-93217029D01*
X172750470Y-93036011D01*
X172748911Y-93034815D01*
X172648911Y-92958081D01*
X172547352Y-92880152D01*
X172325646Y-92752151D01*
X172325631Y-92752144D01*
X172089116Y-92654177D01*
X171965628Y-92621089D01*
X171841829Y-92587917D01*
X171785423Y-92580491D01*
X171588013Y-92554500D01*
X171588006Y-92554500D01*
X171331994Y-92554500D01*
X171331986Y-92554500D01*
X171106373Y-92584204D01*
X171078171Y-92587917D01*
X171011911Y-92605671D01*
X170830883Y-92654177D01*
X170594368Y-92752144D01*
X170594353Y-92752151D01*
X170372647Y-92880152D01*
X170252554Y-92972303D01*
X170178827Y-93028876D01*
X170113660Y-93054070D01*
X170103342Y-93054500D01*
X163826903Y-93054500D01*
X163657477Y-93081335D01*
X163593631Y-93091447D01*
X163369003Y-93164433D01*
X163158563Y-93271659D01*
X162967496Y-93410476D01*
X162967491Y-93410480D01*
X161522490Y-94855483D01*
X158709192Y-97668780D01*
X158647869Y-97702265D01*
X158578177Y-97697281D01*
X158522244Y-97655409D01*
X158500938Y-97610049D01*
X158479172Y-97519388D01*
X158385777Y-97293911D01*
X158385777Y-97293910D01*
X158258262Y-97085826D01*
X158258261Y-97085823D01*
X158222453Y-97043897D01*
X158099759Y-96900241D01*
X157977063Y-96795449D01*
X157914176Y-96741738D01*
X157914173Y-96741737D01*
X157706088Y-96614222D01*
X157706085Y-96614220D01*
X157480617Y-96520830D01*
X157480616Y-96520829D01*
X157480612Y-96520828D01*
X157355912Y-96490889D01*
X157297182Y-96457997D01*
X156050866Y-95211681D01*
X156017381Y-95150358D01*
X156022365Y-95080666D01*
X156064237Y-95024733D01*
X156129701Y-95000316D01*
X156138547Y-95000000D01*
X156500000Y-95000000D01*
X156500000Y-79890546D01*
X156519685Y-79823507D01*
X156536319Y-79802865D01*
X156752564Y-79586620D01*
X156972276Y-79366907D01*
X157033597Y-79333424D01*
X157103288Y-79338408D01*
X157159222Y-79380279D01*
X157183608Y-79445324D01*
X157194196Y-79586620D01*
X157194197Y-79586625D01*
X157252576Y-79842402D01*
X157252578Y-79842411D01*
X157252580Y-79842416D01*
X157348432Y-80086643D01*
X157479614Y-80313857D01*
X157538515Y-80387716D01*
X157642163Y-80517687D01*
X157668572Y-80582374D01*
X157655815Y-80651069D01*
X157642163Y-80672313D01*
X157479614Y-80876143D01*
X157348432Y-81103356D01*
X157252582Y-81347578D01*
X157252576Y-81347597D01*
X157194197Y-81603374D01*
X157194196Y-81603379D01*
X157174592Y-81864995D01*
X157174592Y-81865004D01*
X157194196Y-82126620D01*
X157194197Y-82126625D01*
X157252576Y-82382402D01*
X157252578Y-82382411D01*
X157252580Y-82382416D01*
X157348432Y-82626643D01*
X157479614Y-82853857D01*
X157625322Y-83036569D01*
X157642163Y-83057687D01*
X157668572Y-83122374D01*
X157655815Y-83191069D01*
X157642163Y-83212313D01*
X157479614Y-83416143D01*
X157348432Y-83643356D01*
X157252582Y-83887578D01*
X157252576Y-83887597D01*
X157194197Y-84143374D01*
X157194196Y-84143379D01*
X157174592Y-84404995D01*
X157174592Y-84405004D01*
X157194196Y-84666620D01*
X157194197Y-84666625D01*
X157252576Y-84922402D01*
X157252578Y-84922411D01*
X157252580Y-84922416D01*
X157348432Y-85166643D01*
X157479614Y-85393857D01*
X157578043Y-85517283D01*
X157642163Y-85597687D01*
X157668572Y-85662374D01*
X157655815Y-85731069D01*
X157642163Y-85752313D01*
X157479614Y-85956143D01*
X157348432Y-86183356D01*
X157252582Y-86427578D01*
X157252576Y-86427597D01*
X157194197Y-86683374D01*
X157194196Y-86683379D01*
X157174592Y-86944995D01*
X157174592Y-86945004D01*
X157194196Y-87206620D01*
X157194197Y-87206625D01*
X157252576Y-87462402D01*
X157252578Y-87462411D01*
X157252580Y-87462416D01*
X157348432Y-87706643D01*
X157479614Y-87933857D01*
X157578043Y-88057283D01*
X157642163Y-88137687D01*
X157668572Y-88202374D01*
X157655815Y-88271069D01*
X157642163Y-88292313D01*
X157479614Y-88496143D01*
X157348432Y-88723356D01*
X157252582Y-88967578D01*
X157252576Y-88967597D01*
X157194197Y-89223374D01*
X157194196Y-89223379D01*
X157174592Y-89484995D01*
X157174592Y-89485004D01*
X157194196Y-89746620D01*
X157194197Y-89746625D01*
X157252576Y-90002402D01*
X157252578Y-90002411D01*
X157252580Y-90002416D01*
X157348432Y-90246643D01*
X157479614Y-90473857D01*
X157570539Y-90587873D01*
X157642163Y-90677687D01*
X157668572Y-90742374D01*
X157655815Y-90811069D01*
X157642163Y-90832313D01*
X157479614Y-91036143D01*
X157348432Y-91263356D01*
X157252582Y-91507578D01*
X157252576Y-91507597D01*
X157194197Y-91763374D01*
X157194196Y-91763379D01*
X157174592Y-92024995D01*
X157174592Y-92025004D01*
X157194196Y-92286620D01*
X157194197Y-92286625D01*
X157252576Y-92542402D01*
X157252578Y-92542411D01*
X157252580Y-92542416D01*
X157348432Y-92786643D01*
X157479614Y-93013857D01*
X157629218Y-93201454D01*
X157642163Y-93217687D01*
X157668572Y-93282374D01*
X157655815Y-93351069D01*
X157642163Y-93372313D01*
X157479614Y-93576143D01*
X157348432Y-93803356D01*
X157252582Y-94047578D01*
X157252576Y-94047597D01*
X157194197Y-94303374D01*
X157194196Y-94303379D01*
X157174592Y-94564995D01*
X157174592Y-94565004D01*
X157194196Y-94826620D01*
X157194197Y-94826625D01*
X157252576Y-95082402D01*
X157252578Y-95082411D01*
X157252580Y-95082416D01*
X157348432Y-95326643D01*
X157479614Y-95553857D01*
X157610460Y-95717933D01*
X157643198Y-95758985D01*
X157787596Y-95892965D01*
X157835521Y-95937433D01*
X158052296Y-96085228D01*
X158052301Y-96085230D01*
X158052302Y-96085231D01*
X158052303Y-96085232D01*
X158141090Y-96127989D01*
X158288673Y-96199061D01*
X158288674Y-96199061D01*
X158288677Y-96199063D01*
X158539385Y-96276396D01*
X158798818Y-96315500D01*
X159061182Y-96315500D01*
X159320615Y-96276396D01*
X159571323Y-96199063D01*
X159807704Y-96085228D01*
X160024479Y-95937433D01*
X160216805Y-95758981D01*
X160380386Y-95553857D01*
X160511568Y-95326643D01*
X160607420Y-95082416D01*
X160665802Y-94826630D01*
X160673005Y-94730513D01*
X160685408Y-94565004D01*
X160685408Y-94564995D01*
X160665803Y-94303379D01*
X160665802Y-94303374D01*
X160665802Y-94303370D01*
X160607420Y-94047584D01*
X160511568Y-93803357D01*
X160380386Y-93576143D01*
X160217835Y-93372310D01*
X160191428Y-93307626D01*
X160204183Y-93238931D01*
X160217832Y-93217693D01*
X160380386Y-93013857D01*
X160511568Y-92786643D01*
X160607420Y-92542416D01*
X160665802Y-92286630D01*
X160685408Y-92025000D01*
X160665802Y-91763370D01*
X160607420Y-91507584D01*
X160511568Y-91263357D01*
X160380386Y-91036143D01*
X160217835Y-90832310D01*
X160191428Y-90767626D01*
X160204183Y-90698931D01*
X160217832Y-90677693D01*
X160380386Y-90473857D01*
X160511568Y-90246643D01*
X160607420Y-90002416D01*
X160665802Y-89746630D01*
X160685408Y-89485000D01*
X160665802Y-89223370D01*
X160607420Y-88967584D01*
X160511568Y-88723357D01*
X160380386Y-88496143D01*
X160341045Y-88446811D01*
X160314638Y-88382127D01*
X160327393Y-88313431D01*
X160375264Y-88262537D01*
X160437993Y-88245500D01*
X166657351Y-88245500D01*
X166657352Y-88245500D01*
X166859535Y-88213477D01*
X166956876Y-88181848D01*
X167054219Y-88150220D01*
X167145414Y-88103753D01*
X167236611Y-88057287D01*
X167402219Y-87936966D01*
X172797182Y-82542000D01*
X172855915Y-82509109D01*
X172980609Y-82479173D01*
X172980613Y-82479172D01*
X173206085Y-82385779D01*
X173206086Y-82385778D01*
X173206089Y-82385777D01*
X173414179Y-82258259D01*
X173599759Y-82099759D01*
X173758259Y-81914179D01*
X173885777Y-81706089D01*
X173979172Y-81480612D01*
X174036146Y-81243302D01*
X174055294Y-81000000D01*
X174036146Y-80756698D01*
X173979172Y-80519388D01*
X173979169Y-80519380D01*
X173885777Y-80293910D01*
X173758262Y-80085826D01*
X173758261Y-80085823D01*
X173651708Y-79961066D01*
X173599759Y-79900241D01*
X173443747Y-79766994D01*
X173414176Y-79741738D01*
X173414173Y-79741737D01*
X173206089Y-79614222D01*
X172980618Y-79520830D01*
X172980621Y-79520830D01*
X172874992Y-79495470D01*
X172743302Y-79463854D01*
X172743300Y-79463853D01*
X172743297Y-79463853D01*
X172500000Y-79444706D01*
X172256702Y-79463853D01*
X172256698Y-79463854D01*
X172102889Y-79500781D01*
X172019380Y-79520830D01*
X171793910Y-79614222D01*
X171585826Y-79741737D01*
X171585823Y-79741738D01*
X171400241Y-79900241D01*
X171241738Y-80085823D01*
X171241737Y-80085826D01*
X171114222Y-80293911D01*
X171114220Y-80293914D01*
X171020829Y-80519383D01*
X171020826Y-80519392D01*
X170990889Y-80644085D01*
X170957997Y-80702817D01*
X166052634Y-85608181D01*
X165991311Y-85641666D01*
X165964953Y-85644500D01*
X160437993Y-85644500D01*
X160370954Y-85624815D01*
X160325199Y-85572011D01*
X160315255Y-85502853D01*
X160341045Y-85443188D01*
X160380386Y-85393857D01*
X160511568Y-85166643D01*
X160607420Y-84922416D01*
X160665802Y-84666630D01*
X160685408Y-84405000D01*
X160677754Y-84302865D01*
X160665803Y-84143379D01*
X160665802Y-84143374D01*
X160665802Y-84143370D01*
X160607420Y-83887584D01*
X160511568Y-83643357D01*
X160380386Y-83416143D01*
X160217835Y-83212310D01*
X160191428Y-83147626D01*
X160204183Y-83078931D01*
X160217832Y-83057693D01*
X160380386Y-82853857D01*
X160511568Y-82626643D01*
X160607420Y-82382416D01*
X160665802Y-82126630D01*
X160667816Y-82099758D01*
X160685408Y-81865004D01*
X160685408Y-81864995D01*
X160665803Y-81603379D01*
X160665802Y-81603374D01*
X160665802Y-81603370D01*
X160607420Y-81347584D01*
X160511568Y-81103357D01*
X160380386Y-80876143D01*
X160217835Y-80672310D01*
X160191428Y-80607626D01*
X160204183Y-80538931D01*
X160217832Y-80517693D01*
X160380386Y-80313857D01*
X160511568Y-80086643D01*
X160607420Y-79842416D01*
X160665802Y-79586630D01*
X160670733Y-79520828D01*
X160685408Y-79325004D01*
X160685408Y-79324995D01*
X160665803Y-79063379D01*
X160665802Y-79063374D01*
X160665802Y-79063370D01*
X160607420Y-78807584D01*
X160511568Y-78563357D01*
X160380386Y-78336143D01*
X160217835Y-78132310D01*
X160191428Y-78067626D01*
X160204183Y-77998931D01*
X160217832Y-77977693D01*
X160380386Y-77773857D01*
X160511568Y-77546643D01*
X160607420Y-77302416D01*
X160665802Y-77046630D01*
X160685408Y-76785000D01*
X160681587Y-76734015D01*
X160665803Y-76523379D01*
X160665802Y-76523374D01*
X160665802Y-76523370D01*
X160607420Y-76267584D01*
X160511568Y-76023357D01*
X160380386Y-75796143D01*
X160217835Y-75592310D01*
X160191428Y-75527626D01*
X160204183Y-75458931D01*
X160217832Y-75437693D01*
X160290008Y-75347186D01*
X160347197Y-75307047D01*
X160386955Y-75300500D01*
X166159953Y-75300500D01*
X166226992Y-75320185D01*
X166247634Y-75336819D01*
X169402786Y-78491971D01*
X169557749Y-78604556D01*
X169568390Y-78612287D01*
X169684607Y-78671503D01*
X169750776Y-78705218D01*
X169750778Y-78705218D01*
X169750781Y-78705220D01*
X169855137Y-78739127D01*
X169945465Y-78768477D01*
X170046557Y-78784488D01*
X170147648Y-78800500D01*
X189795625Y-78800500D01*
X189862664Y-78820185D01*
X189900322Y-78858058D01*
X189973051Y-78972661D01*
X189973054Y-78972665D01*
X190173606Y-79215090D01*
X190173608Y-79215092D01*
X190173610Y-79215094D01*
X190354106Y-79384591D01*
X190402968Y-79430476D01*
X190402978Y-79430484D01*
X190657504Y-79615408D01*
X190657509Y-79615410D01*
X190657516Y-79615416D01*
X190933234Y-79766994D01*
X190933239Y-79766996D01*
X190933241Y-79766997D01*
X190933242Y-79766998D01*
X191225771Y-79882818D01*
X191225774Y-79882819D01*
X191530523Y-79961065D01*
X191530527Y-79961066D01*
X191596010Y-79969338D01*
X191842670Y-80000499D01*
X191842679Y-80000499D01*
X191842682Y-80000500D01*
X191842684Y-80000500D01*
X192157316Y-80000500D01*
X192157318Y-80000500D01*
X192157321Y-80000499D01*
X192157329Y-80000499D01*
X192343593Y-79976968D01*
X192469473Y-79961066D01*
X192774225Y-79882819D01*
X192774228Y-79882818D01*
X193066757Y-79766998D01*
X193066758Y-79766997D01*
X193066756Y-79766997D01*
X193066766Y-79766994D01*
X193342484Y-79615416D01*
X193597030Y-79430478D01*
X193826390Y-79215094D01*
X194026947Y-78972663D01*
X194195537Y-78707007D01*
X194329503Y-78422315D01*
X194426731Y-78123079D01*
X194485688Y-77814015D01*
X194485689Y-77814004D01*
X194505444Y-77500005D01*
X194505444Y-77499994D01*
X194485689Y-77185995D01*
X194485688Y-77185988D01*
X194485688Y-77185985D01*
X194426731Y-76876921D01*
X194329503Y-76577685D01*
X194195537Y-76292993D01*
X194113156Y-76163181D01*
X194026948Y-76027338D01*
X194026945Y-76027334D01*
X193826393Y-75784909D01*
X193826391Y-75784907D01*
X193607953Y-75579779D01*
X193597030Y-75569522D01*
X193597027Y-75569520D01*
X193597021Y-75569515D01*
X193342495Y-75384591D01*
X193342488Y-75384586D01*
X193342484Y-75384584D01*
X193066766Y-75233006D01*
X193066763Y-75233004D01*
X193066758Y-75233002D01*
X193066757Y-75233001D01*
X192774228Y-75117181D01*
X192774225Y-75117180D01*
X192629820Y-75080104D01*
X192569782Y-75044366D01*
X192538596Y-74981842D01*
X192546164Y-74912384D01*
X192590082Y-74858043D01*
X192629820Y-74839896D01*
X192774225Y-74802819D01*
X192774228Y-74802818D01*
X193066757Y-74686998D01*
X193066758Y-74686997D01*
X193066756Y-74686997D01*
X193066766Y-74686994D01*
X193342484Y-74535416D01*
X193597030Y-74350478D01*
X193826390Y-74135094D01*
X194026947Y-73892663D01*
X194195537Y-73627007D01*
X194329503Y-73342315D01*
X194426731Y-73043079D01*
X194485688Y-72734015D01*
X194488215Y-72693856D01*
X194505444Y-72420005D01*
X194505444Y-72419994D01*
X194485689Y-72105995D01*
X194485688Y-72105988D01*
X194485688Y-72105985D01*
X194426731Y-71796921D01*
X194329503Y-71497685D01*
X194195537Y-71212993D01*
X194113156Y-71083181D01*
X194026948Y-70947338D01*
X194026945Y-70947334D01*
X193826393Y-70704909D01*
X193826391Y-70704907D01*
X193597031Y-70489523D01*
X193597021Y-70489515D01*
X193342495Y-70304591D01*
X193342488Y-70304586D01*
X193342484Y-70304584D01*
X193066766Y-70153006D01*
X193066763Y-70153004D01*
X193066758Y-70153002D01*
X193066757Y-70153001D01*
X192774228Y-70037181D01*
X192774225Y-70037180D01*
X192629820Y-70000104D01*
X192569782Y-69964366D01*
X192538596Y-69901842D01*
X192546164Y-69832384D01*
X192590082Y-69778043D01*
X192629820Y-69759896D01*
X192774225Y-69722819D01*
X192774228Y-69722818D01*
X193066757Y-69606998D01*
X193066758Y-69606997D01*
X193066756Y-69606997D01*
X193066766Y-69606994D01*
X193342484Y-69455416D01*
X193597030Y-69270478D01*
X193826390Y-69055094D01*
X194026947Y-68812663D01*
X194195537Y-68547007D01*
X194329503Y-68262315D01*
X194426731Y-67963079D01*
X194485688Y-67654015D01*
X194501385Y-67404514D01*
X194505444Y-67340005D01*
X194505444Y-67339994D01*
X194485689Y-67025995D01*
X194485688Y-67025988D01*
X194485688Y-67025985D01*
X194426731Y-66716921D01*
X194329503Y-66417685D01*
X194195537Y-66132993D01*
X194128905Y-66027998D01*
X194026948Y-65867338D01*
X194026945Y-65867334D01*
X193826393Y-65624909D01*
X193826391Y-65624907D01*
X193597031Y-65409523D01*
X193597021Y-65409515D01*
X193342495Y-65224591D01*
X193342488Y-65224586D01*
X193342484Y-65224584D01*
X193066766Y-65073006D01*
X193066763Y-65073004D01*
X193066758Y-65073002D01*
X193066757Y-65073001D01*
X192774228Y-64957181D01*
X192774225Y-64957180D01*
X192629820Y-64920104D01*
X192569782Y-64884366D01*
X192538596Y-64821842D01*
X192546164Y-64752384D01*
X192590082Y-64698043D01*
X192629820Y-64679896D01*
X192774225Y-64642819D01*
X192774228Y-64642818D01*
X193066757Y-64526998D01*
X193066758Y-64526997D01*
X193066756Y-64526997D01*
X193066766Y-64526994D01*
X193342484Y-64375416D01*
X193597030Y-64190478D01*
X193826390Y-63975094D01*
X194026947Y-63732663D01*
X194195537Y-63467007D01*
X194329503Y-63182315D01*
X194426731Y-62883079D01*
X194485688Y-62574015D01*
X194486270Y-62564767D01*
X194505444Y-62260005D01*
X194505444Y-62259994D01*
X194485689Y-61945995D01*
X194485688Y-61945988D01*
X194485688Y-61945985D01*
X194426731Y-61636921D01*
X194329503Y-61337685D01*
X194195537Y-61052993D01*
X194026947Y-60787337D01*
X194026945Y-60787334D01*
X193826393Y-60544909D01*
X193826391Y-60544907D01*
X193597031Y-60329523D01*
X193597021Y-60329515D01*
X193342495Y-60144591D01*
X193342488Y-60144586D01*
X193342484Y-60144584D01*
X193066766Y-59993006D01*
X193066763Y-59993004D01*
X193066758Y-59993002D01*
X193066757Y-59993001D01*
X192774228Y-59877181D01*
X192774225Y-59877180D01*
X192629820Y-59840104D01*
X192569782Y-59804366D01*
X192538596Y-59741842D01*
X192546164Y-59672384D01*
X192590082Y-59618043D01*
X192629820Y-59599896D01*
X192774225Y-59562819D01*
X192774228Y-59562818D01*
X193066757Y-59446998D01*
X193066758Y-59446997D01*
X193066756Y-59446997D01*
X193066766Y-59446994D01*
X193342484Y-59295416D01*
X193597030Y-59110478D01*
X193826390Y-58895094D01*
X194026947Y-58652663D01*
X194195537Y-58387007D01*
X194329503Y-58102315D01*
X194426731Y-57803079D01*
X194485688Y-57494015D01*
X194485689Y-57494004D01*
X194505444Y-57180005D01*
X194505444Y-57179994D01*
X194485689Y-56865995D01*
X194485688Y-56865988D01*
X194485688Y-56865985D01*
X194426731Y-56556921D01*
X194329503Y-56257685D01*
X194195537Y-55972993D01*
X194128905Y-55867998D01*
X194026948Y-55707338D01*
X194026945Y-55707334D01*
X193826393Y-55464909D01*
X193826391Y-55464907D01*
X193597031Y-55249523D01*
X193597021Y-55249515D01*
X193342495Y-55064591D01*
X193342488Y-55064586D01*
X193342484Y-55064584D01*
X193066766Y-54913006D01*
X193066763Y-54913004D01*
X193066758Y-54913002D01*
X193066757Y-54913001D01*
X192774228Y-54797181D01*
X192774225Y-54797180D01*
X192629820Y-54760104D01*
X192569782Y-54724366D01*
X192538596Y-54661842D01*
X192546164Y-54592384D01*
X192590082Y-54538043D01*
X192629820Y-54519896D01*
X192774225Y-54482819D01*
X192774228Y-54482818D01*
X193066757Y-54366998D01*
X193066758Y-54366997D01*
X193066756Y-54366997D01*
X193066766Y-54366994D01*
X193342484Y-54215416D01*
X193597030Y-54030478D01*
X193826390Y-53815094D01*
X194026947Y-53572663D01*
X194195537Y-53307007D01*
X194329503Y-53022315D01*
X194426731Y-52723079D01*
X194485688Y-52414015D01*
X194486555Y-52400241D01*
X194505444Y-52100005D01*
X194505444Y-52099994D01*
X194485689Y-51785995D01*
X194485688Y-51785988D01*
X194485688Y-51785985D01*
X194426731Y-51476921D01*
X194329503Y-51177685D01*
X194294053Y-51102351D01*
X194195538Y-50892996D01*
X194195537Y-50892993D01*
X194026947Y-50627337D01*
X194026945Y-50627334D01*
X193826393Y-50384909D01*
X193826391Y-50384907D01*
X193597031Y-50169523D01*
X193597021Y-50169515D01*
X193342495Y-49984591D01*
X193342488Y-49984586D01*
X193342484Y-49984584D01*
X193066766Y-49833006D01*
X193066763Y-49833004D01*
X193066758Y-49833002D01*
X193066757Y-49833001D01*
X192774228Y-49717181D01*
X192774225Y-49717180D01*
X192469476Y-49638934D01*
X192469463Y-49638932D01*
X192157329Y-49599500D01*
X192157318Y-49599500D01*
X191842682Y-49599500D01*
X191842670Y-49599500D01*
X191530536Y-49638932D01*
X191530523Y-49638934D01*
X191225774Y-49717180D01*
X191225771Y-49717181D01*
X190933242Y-49833001D01*
X190933241Y-49833002D01*
X190657516Y-49984584D01*
X190657504Y-49984591D01*
X190402978Y-50169515D01*
X190402968Y-50169523D01*
X190173611Y-50384904D01*
X190152890Y-50409952D01*
X190033274Y-50554541D01*
X189975376Y-50593648D01*
X189937732Y-50599500D01*
X183772889Y-50599500D01*
X183705850Y-50579815D01*
X183685208Y-50563181D01*
X182672434Y-49550407D01*
X182638949Y-49489084D01*
X182643933Y-49419392D01*
X182655414Y-49396290D01*
X182775537Y-49207007D01*
X182909503Y-48922315D01*
X183006731Y-48623079D01*
X183065688Y-48314015D01*
X183085444Y-48000000D01*
X183065688Y-47685985D01*
X183006731Y-47376921D01*
X182909503Y-47077685D01*
X182775537Y-46792993D01*
X182616212Y-46541936D01*
X182606948Y-46527338D01*
X182606945Y-46527334D01*
X182406393Y-46284909D01*
X182406391Y-46284907D01*
X182177031Y-46069523D01*
X182177028Y-46069520D01*
X182131614Y-46036525D01*
X182088949Y-45981195D01*
X182080500Y-45936207D01*
X182080500Y-45461902D01*
X182043553Y-45228631D01*
X181970566Y-45004003D01*
X181949955Y-44963553D01*
X181949954Y-44963552D01*
X181906726Y-44878711D01*
X193149500Y-44878711D01*
X193149500Y-45121288D01*
X193181161Y-45361785D01*
X193243947Y-45596104D01*
X193300654Y-45733006D01*
X193336776Y-45820212D01*
X193458064Y-46030289D01*
X193458066Y-46030292D01*
X193458067Y-46030293D01*
X193605733Y-46222736D01*
X193605739Y-46222743D01*
X193777256Y-46394260D01*
X193777262Y-46394265D01*
X193969711Y-46541936D01*
X194179788Y-46663224D01*
X194403900Y-46756054D01*
X194638211Y-46818838D01*
X194818586Y-46842584D01*
X194878711Y-46850500D01*
X194878712Y-46850500D01*
X195121289Y-46850500D01*
X195169388Y-46844167D01*
X195361789Y-46818838D01*
X195596100Y-46756054D01*
X195820212Y-46663224D01*
X196030289Y-46541936D01*
X196222738Y-46394265D01*
X196394265Y-46222738D01*
X196541936Y-46030289D01*
X196663224Y-45820212D01*
X196756054Y-45596100D01*
X196818838Y-45361789D01*
X196850500Y-45121288D01*
X196850500Y-44878712D01*
X196818838Y-44638211D01*
X196756054Y-44403900D01*
X196663224Y-44179788D01*
X196541936Y-43969711D01*
X196394265Y-43777262D01*
X196394260Y-43777256D01*
X196222743Y-43605739D01*
X196222736Y-43605733D01*
X196030293Y-43458067D01*
X196030292Y-43458066D01*
X196030289Y-43458064D01*
X195820212Y-43336776D01*
X195820205Y-43336773D01*
X195596104Y-43243947D01*
X195361785Y-43181161D01*
X195121289Y-43149500D01*
X195121288Y-43149500D01*
X194878712Y-43149500D01*
X194878711Y-43149500D01*
X194638214Y-43181161D01*
X194403895Y-43243947D01*
X194179794Y-43336773D01*
X194179785Y-43336777D01*
X193969706Y-43458067D01*
X193777263Y-43605733D01*
X193777256Y-43605739D01*
X193605739Y-43777256D01*
X193605733Y-43777263D01*
X193458067Y-43969706D01*
X193336777Y-44179785D01*
X193336773Y-44179794D01*
X193243947Y-44403895D01*
X193181161Y-44638214D01*
X193149500Y-44878711D01*
X181906726Y-44878711D01*
X181863344Y-44793567D01*
X181750470Y-44638211D01*
X181724517Y-44602490D01*
X179477510Y-42355483D01*
X179286434Y-42216657D01*
X179075996Y-42109433D01*
X178851368Y-42036446D01*
X178618097Y-41999500D01*
X178618092Y-41999500D01*
X156624000Y-41999500D01*
X156556961Y-41979815D01*
X156511206Y-41927011D01*
X156500000Y-41875500D01*
X156500000Y-41124500D01*
X156519685Y-41057461D01*
X156572489Y-41011706D01*
X156624000Y-41000500D01*
X199375500Y-41000500D01*
X199442539Y-41020185D01*
X199488294Y-41072989D01*
X199499500Y-41124500D01*
X199499500Y-139875500D01*
X199479815Y-139942539D01*
X199427011Y-139988294D01*
X199375500Y-139999500D01*
X100624500Y-139999500D01*
X100557461Y-139979815D01*
X100511706Y-139927011D01*
X100500500Y-139875500D01*
X100500500Y-135878711D01*
X102649500Y-135878711D01*
X102649500Y-136121288D01*
X102681161Y-136361785D01*
X102743947Y-136596104D01*
X102796400Y-136722736D01*
X102836776Y-136820212D01*
X102958064Y-137030289D01*
X102958066Y-137030292D01*
X102958067Y-137030293D01*
X103105733Y-137222736D01*
X103105739Y-137222743D01*
X103277256Y-137394260D01*
X103277262Y-137394265D01*
X103469711Y-137541936D01*
X103679788Y-137663224D01*
X103903900Y-137756054D01*
X104138211Y-137818838D01*
X104318586Y-137842584D01*
X104378711Y-137850500D01*
X104378712Y-137850500D01*
X104621289Y-137850500D01*
X104669388Y-137844167D01*
X104861789Y-137818838D01*
X105096100Y-137756054D01*
X105320212Y-137663224D01*
X105530289Y-137541936D01*
X105722738Y-137394265D01*
X105894265Y-137222738D01*
X106041936Y-137030289D01*
X106163224Y-136820212D01*
X106256054Y-136596100D01*
X106318838Y-136361789D01*
X106350500Y-136121288D01*
X106350500Y-135878712D01*
X106318838Y-135638211D01*
X106256054Y-135403900D01*
X106245620Y-135378711D01*
X193149500Y-135378711D01*
X193149500Y-135621288D01*
X193181161Y-135861785D01*
X193243947Y-136096104D01*
X193254379Y-136121288D01*
X193336776Y-136320212D01*
X193458064Y-136530289D01*
X193458066Y-136530292D01*
X193458067Y-136530293D01*
X193605733Y-136722736D01*
X193605739Y-136722743D01*
X193777256Y-136894260D01*
X193777262Y-136894265D01*
X193969711Y-137041936D01*
X194179788Y-137163224D01*
X194403900Y-137256054D01*
X194638211Y-137318838D01*
X194818586Y-137342584D01*
X194878711Y-137350500D01*
X194878712Y-137350500D01*
X195121289Y-137350500D01*
X195169388Y-137344167D01*
X195361789Y-137318838D01*
X195596100Y-137256054D01*
X195820212Y-137163224D01*
X196030289Y-137041936D01*
X196222738Y-136894265D01*
X196394265Y-136722738D01*
X196541936Y-136530289D01*
X196663224Y-136320212D01*
X196756054Y-136096100D01*
X196818838Y-135861789D01*
X196850500Y-135621288D01*
X196850500Y-135378712D01*
X196818838Y-135138211D01*
X196756054Y-134903900D01*
X196663224Y-134679788D01*
X196541936Y-134469711D01*
X196394265Y-134277262D01*
X196394260Y-134277256D01*
X196222743Y-134105739D01*
X196222736Y-134105733D01*
X196030293Y-133958067D01*
X196030292Y-133958066D01*
X196030289Y-133958064D01*
X195820212Y-133836776D01*
X195820205Y-133836773D01*
X195596104Y-133743947D01*
X195361785Y-133681161D01*
X195121289Y-133649500D01*
X195121288Y-133649500D01*
X194878712Y-133649500D01*
X194878711Y-133649500D01*
X194638214Y-133681161D01*
X194403895Y-133743947D01*
X194179794Y-133836773D01*
X194179785Y-133836777D01*
X193969706Y-133958067D01*
X193777263Y-134105733D01*
X193777256Y-134105739D01*
X193605739Y-134277256D01*
X193605733Y-134277263D01*
X193458067Y-134469706D01*
X193336777Y-134679785D01*
X193336773Y-134679794D01*
X193243947Y-134903895D01*
X193181161Y-135138214D01*
X193149500Y-135378711D01*
X106245620Y-135378711D01*
X106163224Y-135179788D01*
X106041936Y-134969711D01*
X105894265Y-134777262D01*
X105894260Y-134777256D01*
X105722743Y-134605739D01*
X105722736Y-134605733D01*
X105530293Y-134458067D01*
X105530292Y-134458066D01*
X105530289Y-134458064D01*
X105320212Y-134336776D01*
X105320205Y-134336773D01*
X105096104Y-134243947D01*
X104861785Y-134181161D01*
X104621289Y-134149500D01*
X104621288Y-134149500D01*
X104378712Y-134149500D01*
X104378711Y-134149500D01*
X104138214Y-134181161D01*
X103903895Y-134243947D01*
X103679794Y-134336773D01*
X103679785Y-134336777D01*
X103469706Y-134458067D01*
X103277263Y-134605733D01*
X103277256Y-134605739D01*
X103105739Y-134777256D01*
X103105733Y-134777263D01*
X102958067Y-134969706D01*
X102836777Y-135179785D01*
X102836773Y-135179794D01*
X102743947Y-135403895D01*
X102681161Y-135638214D01*
X102649500Y-135878711D01*
X100500500Y-135878711D01*
X100500500Y-44878711D01*
X102149500Y-44878711D01*
X102149500Y-45121288D01*
X102181161Y-45361785D01*
X102243947Y-45596104D01*
X102300654Y-45733006D01*
X102336776Y-45820212D01*
X102458064Y-46030289D01*
X102458066Y-46030292D01*
X102458067Y-46030293D01*
X102605733Y-46222736D01*
X102605739Y-46222743D01*
X102777256Y-46394260D01*
X102777262Y-46394265D01*
X102969711Y-46541936D01*
X103179788Y-46663224D01*
X103403900Y-46756054D01*
X103638211Y-46818838D01*
X103818586Y-46842584D01*
X103878711Y-46850500D01*
X103878712Y-46850500D01*
X104121289Y-46850500D01*
X104169388Y-46844167D01*
X104361789Y-46818838D01*
X104596100Y-46756054D01*
X104820212Y-46663224D01*
X105030289Y-46541936D01*
X105222738Y-46394265D01*
X105394265Y-46222738D01*
X105541936Y-46030289D01*
X105663224Y-45820212D01*
X105756054Y-45596100D01*
X105818838Y-45361789D01*
X105850500Y-45121288D01*
X105850500Y-44878712D01*
X105818838Y-44638211D01*
X105756054Y-44403900D01*
X105663224Y-44179788D01*
X105541936Y-43969711D01*
X105394265Y-43777262D01*
X105394260Y-43777256D01*
X105222743Y-43605739D01*
X105222736Y-43605733D01*
X105030293Y-43458067D01*
X105030292Y-43458066D01*
X105030289Y-43458064D01*
X104820212Y-43336776D01*
X104820205Y-43336773D01*
X104596104Y-43243947D01*
X104361785Y-43181161D01*
X104121289Y-43149500D01*
X104121288Y-43149500D01*
X103878712Y-43149500D01*
X103878711Y-43149500D01*
X103638214Y-43181161D01*
X103403895Y-43243947D01*
X103179794Y-43336773D01*
X103179785Y-43336777D01*
X102969706Y-43458067D01*
X102777263Y-43605733D01*
X102777256Y-43605739D01*
X102605739Y-43777256D01*
X102605733Y-43777263D01*
X102458067Y-43969706D01*
X102336777Y-44179785D01*
X102336773Y-44179794D01*
X102243947Y-44403895D01*
X102181161Y-44638214D01*
X102149500Y-44878711D01*
X100500500Y-44878711D01*
X100500500Y-41124500D01*
X100520185Y-41057461D01*
X100572989Y-41011706D01*
X100624500Y-41000500D01*
X138376000Y-41000500D01*
X138443039Y-41020185D01*
G37*
%TD.AperFunction*%
%TA.AperFunction,Conductor*%
G36*
X177894150Y-45020185D02*
G01*
X177914792Y-45036819D01*
X178874195Y-45996222D01*
X178907680Y-46057545D01*
X178902696Y-46127237D01*
X178871398Y-46174295D01*
X178753608Y-46284907D01*
X178753606Y-46284909D01*
X178553054Y-46527334D01*
X178553051Y-46527338D01*
X178384464Y-46792990D01*
X178384461Y-46792996D01*
X178250499Y-47077678D01*
X178250497Y-47077683D01*
X178157931Y-47362573D01*
X178118494Y-47420249D01*
X178054135Y-47447447D01*
X177985289Y-47435532D01*
X177933813Y-47388288D01*
X177922069Y-47362573D01*
X177829502Y-47077683D01*
X177829500Y-47077678D01*
X177773695Y-46959087D01*
X177695537Y-46792993D01*
X177536212Y-46541936D01*
X177526948Y-46527338D01*
X177526945Y-46527334D01*
X177326393Y-46284909D01*
X177326391Y-46284907D01*
X177097031Y-46069523D01*
X177097021Y-46069515D01*
X176842495Y-45884591D01*
X176842488Y-45884586D01*
X176842484Y-45884584D01*
X176566766Y-45733006D01*
X176566763Y-45733004D01*
X176566758Y-45733002D01*
X176566757Y-45733001D01*
X176274228Y-45617181D01*
X176274225Y-45617180D01*
X175969476Y-45538934D01*
X175969463Y-45538932D01*
X175657329Y-45499500D01*
X175657318Y-45499500D01*
X175342682Y-45499500D01*
X175342670Y-45499500D01*
X175030536Y-45538932D01*
X175030523Y-45538934D01*
X174725774Y-45617180D01*
X174725771Y-45617181D01*
X174433242Y-45733001D01*
X174433241Y-45733002D01*
X174157516Y-45884584D01*
X174157504Y-45884591D01*
X173902978Y-46069515D01*
X173902968Y-46069523D01*
X173673608Y-46284907D01*
X173673606Y-46284909D01*
X173473054Y-46527334D01*
X173473051Y-46527338D01*
X173304464Y-46792990D01*
X173304461Y-46792996D01*
X173170499Y-47077678D01*
X173170497Y-47077683D01*
X173073270Y-47376916D01*
X173014311Y-47685988D01*
X173014310Y-47685995D01*
X172994556Y-47999994D01*
X172994556Y-48000005D01*
X173014310Y-48314004D01*
X173014311Y-48314011D01*
X173014312Y-48314015D01*
X173071100Y-48611711D01*
X173073270Y-48623083D01*
X173170497Y-48922316D01*
X173170499Y-48922321D01*
X173304461Y-49207003D01*
X173304464Y-49207009D01*
X173473051Y-49472661D01*
X173473054Y-49472665D01*
X173673606Y-49715090D01*
X173673608Y-49715092D01*
X173673610Y-49715094D01*
X173675833Y-49717181D01*
X173902968Y-49930476D01*
X173902978Y-49930484D01*
X174148385Y-50108782D01*
X174191051Y-50164111D01*
X174199500Y-50209100D01*
X174199500Y-50409952D01*
X174179815Y-50476991D01*
X174163181Y-50497633D01*
X172740762Y-51920051D01*
X172679439Y-51953536D01*
X172643352Y-51955987D01*
X172500000Y-51944706D01*
X172499999Y-51944706D01*
X172256702Y-51963853D01*
X172019380Y-52020830D01*
X171793910Y-52114222D01*
X171585826Y-52241737D01*
X171585823Y-52241738D01*
X171400241Y-52400241D01*
X171241738Y-52585823D01*
X171241737Y-52585826D01*
X171114222Y-52793910D01*
X171020830Y-53019380D01*
X170963853Y-53256702D01*
X170944706Y-53500000D01*
X170963853Y-53743297D01*
X171020830Y-53980619D01*
X171114222Y-54206089D01*
X171241737Y-54414173D01*
X171241738Y-54414176D01*
X171241741Y-54414179D01*
X171400241Y-54599759D01*
X171493606Y-54679500D01*
X171585823Y-54758261D01*
X171585826Y-54758262D01*
X171793910Y-54885777D01*
X172019381Y-54979169D01*
X172019378Y-54979169D01*
X172019384Y-54979170D01*
X172019388Y-54979172D01*
X172256698Y-55036146D01*
X172500000Y-55055294D01*
X172743302Y-55036146D01*
X172980612Y-54979172D01*
X173206089Y-54885777D01*
X173414179Y-54758259D01*
X173443439Y-54733268D01*
X173485652Y-54709627D01*
X173499219Y-54705220D01*
X173603078Y-54652301D01*
X173681611Y-54612287D01*
X173847219Y-54491966D01*
X176491966Y-51847219D01*
X176612287Y-51681611D01*
X176658753Y-51590414D01*
X176705220Y-51499219D01*
X176765541Y-51313571D01*
X176765543Y-51313566D01*
X176768473Y-51304549D01*
X176768474Y-51304543D01*
X176768477Y-51304535D01*
X176800500Y-51102352D01*
X176800500Y-50897648D01*
X176800500Y-50209100D01*
X176820185Y-50142061D01*
X176851615Y-50108782D01*
X176955284Y-50033462D01*
X177097030Y-49930478D01*
X177326390Y-49715094D01*
X177526947Y-49472663D01*
X177695537Y-49207007D01*
X177829503Y-48922315D01*
X177922069Y-48637424D01*
X177961506Y-48579750D01*
X178025865Y-48552552D01*
X178094711Y-48564467D01*
X178146187Y-48611711D01*
X178157931Y-48637426D01*
X178250497Y-48922316D01*
X178250499Y-48922321D01*
X178384461Y-49207003D01*
X178384464Y-49207009D01*
X178553051Y-49472661D01*
X178553054Y-49472665D01*
X178753606Y-49715090D01*
X178753608Y-49715092D01*
X178753610Y-49715094D01*
X178755833Y-49717181D01*
X178982968Y-49930476D01*
X178982975Y-49930482D01*
X178982978Y-49930484D01*
X179124719Y-50033464D01*
X179167385Y-50088792D01*
X179169765Y-50095464D01*
X179189429Y-50155987D01*
X179296657Y-50366434D01*
X179435483Y-50557510D01*
X182122490Y-53244517D01*
X182313566Y-53383343D01*
X182524008Y-53490568D01*
X182748631Y-53563553D01*
X182836109Y-53577408D01*
X182981903Y-53600500D01*
X182981908Y-53600500D01*
X183218092Y-53600500D01*
X189937732Y-53600500D01*
X190004771Y-53620185D01*
X190033273Y-53645457D01*
X190173610Y-53815094D01*
X190173611Y-53815095D01*
X190402968Y-54030476D01*
X190402978Y-54030484D01*
X190657504Y-54215408D01*
X190657509Y-54215410D01*
X190657516Y-54215416D01*
X190933234Y-54366994D01*
X190933239Y-54366996D01*
X190933241Y-54366997D01*
X190933242Y-54366998D01*
X191218786Y-54480051D01*
X191225775Y-54482819D01*
X191351781Y-54515171D01*
X191370180Y-54519896D01*
X191430218Y-54555634D01*
X191461403Y-54618158D01*
X191453835Y-54687616D01*
X191409916Y-54741957D01*
X191370180Y-54760104D01*
X191225770Y-54797182D01*
X190933242Y-54913001D01*
X190933241Y-54913002D01*
X190657516Y-55064584D01*
X190657504Y-55064591D01*
X190402978Y-55249515D01*
X190402968Y-55249523D01*
X190173608Y-55464907D01*
X190173606Y-55464909D01*
X189973054Y-55707334D01*
X189973051Y-55707338D01*
X189900322Y-55821942D01*
X189847780Y-55867998D01*
X189795625Y-55879500D01*
X180217648Y-55879500D01*
X180150254Y-55890174D01*
X180015464Y-55911523D01*
X179820784Y-55974777D01*
X179820781Y-55974778D01*
X179638386Y-56067715D01*
X179472786Y-56188028D01*
X179472782Y-56188032D01*
X172912634Y-62748181D01*
X172851311Y-62781666D01*
X172824953Y-62784500D01*
X160150671Y-62784500D01*
X160083632Y-62764815D01*
X160066329Y-62751398D01*
X160024483Y-62712570D01*
X160024479Y-62712567D01*
X159807704Y-62564772D01*
X159807700Y-62564770D01*
X159807697Y-62564768D01*
X159807696Y-62564767D01*
X159571325Y-62450938D01*
X159571327Y-62450938D01*
X159320623Y-62373606D01*
X159320619Y-62373605D01*
X159320615Y-62373604D01*
X159195823Y-62354794D01*
X159061187Y-62334500D01*
X159061182Y-62334500D01*
X158798818Y-62334500D01*
X158798812Y-62334500D01*
X158637247Y-62358853D01*
X158539385Y-62373604D01*
X158539382Y-62373605D01*
X158539376Y-62373606D01*
X158288673Y-62450938D01*
X158052303Y-62564767D01*
X158052302Y-62564768D01*
X157835520Y-62712567D01*
X157643198Y-62891014D01*
X157479614Y-63096143D01*
X157348432Y-63323356D01*
X157252582Y-63567578D01*
X157252576Y-63567597D01*
X157194197Y-63823374D01*
X157194196Y-63823379D01*
X157174592Y-64084995D01*
X157174592Y-64085004D01*
X157194196Y-64346620D01*
X157194197Y-64346625D01*
X157252576Y-64602402D01*
X157252578Y-64602411D01*
X157252580Y-64602416D01*
X157348432Y-64846643D01*
X157479614Y-65073857D01*
X157629218Y-65261454D01*
X157642163Y-65277687D01*
X157668572Y-65342374D01*
X157655815Y-65411069D01*
X157642163Y-65432313D01*
X157479614Y-65636143D01*
X157348432Y-65863356D01*
X157252582Y-66107578D01*
X157252576Y-66107597D01*
X157194197Y-66363374D01*
X157194196Y-66363379D01*
X157174592Y-66624995D01*
X157174592Y-66625004D01*
X157194196Y-66886620D01*
X157194197Y-66886625D01*
X157252576Y-67142402D01*
X157252578Y-67142411D01*
X157252580Y-67142416D01*
X157348432Y-67386643D01*
X157479614Y-67613857D01*
X157518949Y-67663181D01*
X157642163Y-67817687D01*
X157668572Y-67882374D01*
X157655815Y-67951069D01*
X157642163Y-67972313D01*
X157479614Y-68176143D01*
X157348432Y-68403356D01*
X157252582Y-68647578D01*
X157252576Y-68647597D01*
X157194197Y-68903374D01*
X157194196Y-68903379D01*
X157174592Y-69164995D01*
X157174592Y-69165004D01*
X157194196Y-69426620D01*
X157194197Y-69426625D01*
X157252576Y-69682402D01*
X157252578Y-69682411D01*
X157252580Y-69682416D01*
X157348432Y-69926643D01*
X157479614Y-70153857D01*
X157616282Y-70325233D01*
X157642163Y-70357687D01*
X157668572Y-70422374D01*
X157655815Y-70491069D01*
X157642163Y-70512313D01*
X157479614Y-70716143D01*
X157348432Y-70943356D01*
X157252582Y-71187578D01*
X157252576Y-71187597D01*
X157194197Y-71443374D01*
X157194196Y-71443379D01*
X157174592Y-71704995D01*
X157174592Y-71705004D01*
X157194196Y-71966620D01*
X157194197Y-71966625D01*
X157252576Y-72222402D01*
X157252578Y-72222411D01*
X157252580Y-72222416D01*
X157348432Y-72466643D01*
X157479614Y-72693857D01*
X157628988Y-72881166D01*
X157642163Y-72897687D01*
X157668572Y-72962374D01*
X157655815Y-73031069D01*
X157642163Y-73052313D01*
X157479614Y-73256143D01*
X157348432Y-73483356D01*
X157252582Y-73727578D01*
X157252576Y-73727597D01*
X157194197Y-73983374D01*
X157194196Y-73983379D01*
X157174592Y-74244995D01*
X157174592Y-74245004D01*
X157194196Y-74506620D01*
X157194197Y-74506625D01*
X157252576Y-74762402D01*
X157252578Y-74762411D01*
X157252580Y-74762416D01*
X157348432Y-75006643D01*
X157479614Y-75233857D01*
X157532760Y-75300500D01*
X157539238Y-75308623D01*
X157565647Y-75373310D01*
X157552890Y-75442005D01*
X157505020Y-75492899D01*
X157461691Y-75508409D01*
X157410463Y-75516523D01*
X157215784Y-75579777D01*
X157215781Y-75579778D01*
X157033386Y-75672715D01*
X156867786Y-75793028D01*
X156867782Y-75793032D01*
X156711681Y-75949134D01*
X156650358Y-75982619D01*
X156580666Y-75977635D01*
X156524733Y-75935763D01*
X156500316Y-75870299D01*
X156500000Y-75861453D01*
X156500000Y-60629500D01*
X156519685Y-60562461D01*
X156572489Y-60516706D01*
X156624000Y-60505500D01*
X157985111Y-60505500D01*
X158047708Y-60523880D01*
X158048272Y-60522905D01*
X158052287Y-60525222D01*
X158052296Y-60525228D01*
X158288673Y-60639061D01*
X158288674Y-60639061D01*
X158288677Y-60639063D01*
X158539385Y-60716396D01*
X158798818Y-60755500D01*
X159061182Y-60755500D01*
X159320615Y-60716396D01*
X159571323Y-60639063D01*
X159807704Y-60525228D01*
X160024479Y-60377433D01*
X160216247Y-60199499D01*
X160216801Y-60198985D01*
X160216801Y-60198983D01*
X160216805Y-60198981D01*
X160380386Y-59993857D01*
X160511568Y-59766643D01*
X160607420Y-59522416D01*
X160665802Y-59266630D01*
X160665803Y-59266620D01*
X160685408Y-59005004D01*
X160685408Y-59004995D01*
X160665803Y-58743379D01*
X160665802Y-58743374D01*
X160665802Y-58743370D01*
X160607420Y-58487584D01*
X160511568Y-58243357D01*
X160380386Y-58016143D01*
X160216805Y-57811019D01*
X160216804Y-57811018D01*
X160216801Y-57811014D01*
X160024479Y-57632567D01*
X159997880Y-57614432D01*
X159807704Y-57484772D01*
X159807698Y-57484769D01*
X159807697Y-57484768D01*
X159807696Y-57484767D01*
X159571325Y-57370938D01*
X159571327Y-57370938D01*
X159320623Y-57293606D01*
X159320619Y-57293605D01*
X159320615Y-57293604D01*
X159195823Y-57274794D01*
X159061187Y-57254500D01*
X159061182Y-57254500D01*
X158798818Y-57254500D01*
X158798812Y-57254500D01*
X158637247Y-57278853D01*
X158539385Y-57293604D01*
X158539382Y-57293605D01*
X158539376Y-57293606D01*
X158288673Y-57370938D01*
X158052301Y-57484769D01*
X158048272Y-57487095D01*
X158047307Y-57485423D01*
X157988509Y-57504453D01*
X157985111Y-57504500D01*
X156624000Y-57504500D01*
X156556961Y-57484815D01*
X156511206Y-57432011D01*
X156500000Y-57380500D01*
X156500000Y-45124500D01*
X156519685Y-45057461D01*
X156572489Y-45011706D01*
X156624000Y-45000500D01*
X177827111Y-45000500D01*
X177894150Y-45020185D01*
G37*
%TD.AperFunction*%
%TD*%
M02*
